<svg fill="none" height="216" viewBox="0 0 217 216" width="217" xmlns="http://www.w3.org/2000/svg"><g fill="#7200a6"><path d="m206.592 63.612c6.028-6.85 9.864-15.8925 9.864-25.4821 0-21.0975-17.263-38.0859547-38.086-38.0859547-9.864 0-18.633 3.5624547-25.482 9.5900047-13.974-6.02755-28.77-9.316232-44.388-9.316232-59.4582 0-107.682251 48.223982-107.682251 107.682282 0 59.458 48.224051 107.682 107.682251 107.682 59.458 0 107.682-48.224 107.682-107.408 0-15.3441-3.288-30.1403-9.316-43.8403 0-.2747-.274-.5485-.274-.8223zm-98.092 141.11c-19.7276 0-38.086-5.754-53.43-15.893 0-.547.2738-1.096.2738-1.369 0-29.319 23.838-53.157 53.1562-53.157 29.318 0 53.156 23.838 53.156 53.157 0 .547 0 1.096.274 1.369-15.344 10.138-33.702 15.893-53.43 15.893zm-24.112-108.2301c0-13.4262 10.96-24.1119 24.112-24.1119s24.112 10.6862 24.112 24.1119c0 12.3301-9.042 22.4671-21.098 23.8381-1.096 0-1.917.274-3.013.274-1.097 0-1.918 0-3.014-.274-12.0572-1.37-21.0995-11.783-21.0995-23.8381zm90.42 81.9261c-3.288-24.386-19.728-44.662-41.922-53.43 8.22-6.85 13.426-17.263 13.426-28.4961 0-20.8237-16.988-37.812-37.812-37.812-20.8233 0-37.8118 16.7138-37.8118 37.5381 0 11.508 5.2062 21.92 13.4262 28.77-22.1937 8.768-38.634 29.044-41.922 53.43-18.6324-17.535-30.414-42.744-30.414-70.418 0-53.4301 43.292-96.7221 96.7216-96.7221 12.878 0 25.482 2.74 36.99 7.3976-3.287 5.7538-5.206 12.33-5.206 19.4538 0 21.0975 17.263 38.086 38.086 38.086 7.124 0 13.7-1.9177 19.454-5.48 4.932 11.7824 7.398 24.112 7.398 37.2637 0 27.674-11.782 52.885-30.414 70.418zm3.562-112.8881c-15.07 0-27.126-12.0562-27.126-27.1259 0-15.0698 12.33-27.1261 27.126-27.1261s27.126 12.0563 27.126 27.1261c0 15.0697-12.056 27.1259-27.126 27.1259z"/><path d="m195.084 38.1298c0 3.0138-2.466 5.48-5.48 5.48h-6.028v6.0275c0 3.0138-2.466 5.48-5.48 5.48-3.013 0-5.48-2.4662-5.48-5.48v-6.0275h-5.753c-3.014 0-5.48-2.4662-5.48-5.48s2.466-5.48 5.48-5.48h5.753v-5.7538c0-3.0138 2.467-5.48 5.48-5.48 3.014 0 5.48 2.4662 5.48 5.48v5.7538h6.028c3.014 0 5.48 2.4662 5.48 5.48z"/></g></svg>