<svg fill="none" height="26" viewBox="0 0 22 26" width="22" xmlns="http://www.w3.org/2000/svg"><path d="m5.66838 25.5131c-.51262-.341-.96694-.7624-1.3455-1.248-.41642-.5011-.80224-1.027-1.15538-1.5746-.82868-1.214-1.47856-2.5408-1.92968-3.9398-.541941-1.625-.804379-3.1826-.804379-4.706 0-1.7014.368063-3.1866 1.087939-4.43461.53363-.97546 1.31821-1.79061 2.27256-2.36113.92488-.57446 1.98757-.88883 3.07613-.91.38106 0 .79137.05525 1.22687.16088.31281.08856.69388.22831 1.15944.40218.59231.22832.91812.36807 1.02862.40219.3469.12675.6386.182.8678.182.1738 0 .4192-.05525.6979-.13975.1568-.05525.4526-.15275.8759-.33394.4192-.15275.7491-.28356 1.0115-.38106.4022-.11862.7914-.22831 1.1383-.28356.4113-.06484.8287-.08202 1.244-.05119.7195.04703 1.4283.19951 2.1035.45256 1.1042.44444 1.9972 1.13832 2.6618 2.12469-.2809.17314-.5446.37285-.7873.59638-.5285.46847-.9786 1.01846-1.3333 1.62906-.4637.8345-.7041 1.7745-.698 2.7292.0171 1.1724.3177 2.2051.91 3.098.4355.6618 1.0014 1.2278 1.6632 1.6632.3388.2283.6305.3852.91.4908-.1308.4062-.2706.7995-.4355 1.1895-.3741.8746-.8274 1.713-1.3544 2.5049-.4696.6817-.8377 1.1895-1.1172 1.5275-.4355.516-.8548.91-1.2781 1.1846-.4655.3088-1.0156.4737-1.5746.4737-.3786.0146-.7571-.0312-1.1212-.1357-.3129-.1056-.6224-.2201-.9271-.351-.3168-.1454-.6434-.2684-.9774-.368-.8258-.2121-1.6916-.2135-2.518-.0041-.3388.0975-.66461.2113-.98636.351-.45256.1901-.75319.3177-.92706.3721-.34694.1016-.70688.165-1.07088.1861-.56306 0-1.08794-.1609-1.60793-.4867zm7.42622-19.99964c-.7361.36806-1.4389.52488-2.1368.47369-.1097-.70281 0-1.42188.2916-2.20919.2484-.66701.6153-1.2836 1.0831-1.82.494-.56467 1.0935-1.027506 1.7648-1.362562.715-.368062 1.3966-.5671246 2.0483-.59637456.0845.73612456 0 1.46006656-.2706 2.24249656-.2504.69167-.6166 1.3357-1.0831 1.9045-.476.56545-1.0603 1.03008-1.7184 1.36663z" fill="#000"/></svg>