<svg width="10" height="17" viewBox="0 0 10 17" fill="none" xmlns="http://www.w3.org/2000/svg">
<path d="M9.15757 1.3669C9.06564 1.27474 8.95644 1.20163 8.83621 1.15174C8.71599 1.10185 8.5871 1.07617 8.45694 1.07617C8.32677 1.07617 8.19789 1.10185 8.07766 1.15174C7.95744 1.20163 7.84824 1.27474 7.75631 1.3669L1.17756 7.94565C1.10417 8.01889 1.04595 8.10588 1.00622 8.20165C0.966494 8.29743 0.946045 8.40009 0.946045 8.50377C0.946045 8.60746 0.966494 8.71012 1.00622 8.80589C1.04595 8.90166 1.10417 8.98866 1.17756 9.0619L7.75631 15.6406C8.14423 16.0286 8.76965 16.0286 9.15757 15.6406C9.54548 15.2527 9.54548 14.6273 9.15757 14.2394L3.4259 8.49982L9.16548 2.76023C9.54548 2.38023 9.54548 1.7469 9.15757 1.3669Z" fill="#101820" stroke="#1E232C" stroke-width="0.2"/>
</svg>
