<svg fill="none" height="17" viewBox="0 0 10 17" width="10" xmlns="http://www.w3.org/2000/svg"><path d="m9.15757 1.3669c-.09193-.09216-.20113-.16527-.32136-.21516-.12022-.04989-.24911-.07557-.37927-.07557-.13017 0-.25905.02568-.37928.07557-.12022.04989-.22942.123-.32135.21516l-6.57875 6.57875c-.07339.07324-.13161.16023-.17134.256-.039726.09578-.060175.19844-.060175.30212 0 .10369.020449.20635.060175.30212.03973.09577.09795.18277.17134.25601l6.57875 6.5787c.38792.388 1.01334.388 1.40126 0 .38791-.3879.38791-1.0133 0-1.4012l-5.73167-5.73958 5.73958-5.73959c.38-.38.38-1.01333-.00791-1.39333z" fill="#101820" stroke="#1e232c" stroke-width=".2"/></svg>