<svg fill="none" height="30" viewBox="0 0 19 30" width="19" xmlns="http://www.w3.org/2000/svg"><g fill="#101820"><path d="m16.2199 2.51961h-2.88v-.96c0-.54395-.4161-.960001-.96-.960001h-5.76004c-.54394 0-.96.416051-.96.960001v.96h-2.88c-1.05605 0-1.919997.86395-1.919997 1.92v23.03999c0 1.0561.863947 1.92 1.919997 1.92h13.44004c1.056 0 1.92-.8639 1.92-1.92v-23.03999c0-1.05605-.864-1.92-1.92-1.92zm-13.44004 24.95999v-23.03999h13.44004v23.03999z"/><path d="m7.57983 23.6392c-.16 0-.35197-.0319-.51197-.16-.44803-.288-.57606-.8639-.32-1.3119l3.61604-5.792-2.62399.5119c-.35197.064-.73605-.0639-.96-.3839-.22396-.32-.25604-.704-.06396-1.024l3.84005-6.71996c.256-.44803.8639-.60803 1.3119-.35197.4481.25604.6081.86394.352 1.31197l-2.784 4.89596 2.72-.5439c.3839-.064.768.096.992.3839.2239.32.2239.7361.032 1.0561l-4.80005 7.68c-.1601.2878-.4801.4478-.8001.4478z"/></g></svg>