<svg fill="none" height="118" viewBox="0 0 59 118" width="59" xmlns="http://www.w3.org/2000/svg"><g fill="#7200a6"><path d="m50.0503 11.8383-4.6991-.0966v-3.11177c-.0219-2.18143-.8973-4.26627-2.4363-5.80117-1.5395-1.53502-3.6178-2.396143-5.7837-2.396143h-15.2207c-2.1661 0-4.2443.861153-5.7837 2.396143-1.539 1.53502-2.4144 3.61985-2.4363 5.80117v3.11177l-4.64433.0966c-2.1799 0-4.27097.8724-5.81222 2.4253-1.54171 1.553-2.407778 3.6589-2.407778 5.8547v89.0097c.003568 2.232.885238 4.371 2.451958 5.949 1.56625 1.578 3.68987 2.466 5.90504 2.47h40.71643c2.2155-.004 4.3388-.892 5.9055-2.47 1.5662-1.578 2.4478-3.717 2.4515-5.949v-89.0097c0-2.1935-.8639-4.2972-2.4024-5.8497-1.5387-1.5525-3.6263-2.4263-5.8039-2.4303zm-28.085-5.8857h15.07c.7264 0 1.4235.29109 1.9373.80859.5142.5175.8027 1.21957.8027 1.95143l.0615 5.76178h-20.7281l.0616-5.76178c0-.74166.2961-1.45187.8219-1.97121s1.2366-.80366 1.9729-.78883zm30.7907 103.1964c-.0018.768-.3055 1.504-.8446 2.048-.5392.543-1.2697.849-2.0323.85h-40.73696c-.7626-.001-1.49307-.307-2.03228-.85-.53917-.544-.84287-1.28-.84465-2.048v-89.01c-.00045-.7426.29702-1.4542.82415-1.9739.52713-.5193 1.24019-.8027 1.97736-.7861l7.25408-.1451h26.3588l7.3089.1451h.0005c.7264 0 1.4235.2911 1.9372.8086.5138.5175.8028 1.2196.8028 1.9514z"/><path d="m15.2868 63.9052 7.7884-.0759-7.8155 21.1485c-.2212.6226.0272 1.3157.5922 1.6527.565.3364 1.2875.2223 1.7228-.2727l28.085-32.3472v.0005c.3487-.3985.4393-.9632.2332-1.4519-.206-.4888-.6725-.8149-1.1992-.8392l-9.0491-.4622 9.3505-15.7182c.2449-.4268.2449-.9533 0-1.38-.2381-.416-.6738-.6774-1.1506-.69l-15.07-.5867c-.5449-.0216-1.0511.2848-1.2879.7798l-13.4534 28.29c-.2015.4286-.1703.9317.0821 1.332.2493.4061.6979.6442 1.1716.6208zm14.2891-28.29 11.8779.4623-9.3639 15.732c-.2386.4142-.2471.9231-.0223 1.3449s.6507.6963 1.1252.725l8.5143.4416-21.235 24.5088 5.8912-15.87c.1597-.4258.1008-.9034-.1574-1.2767-.2573-.3684-.6765-.5871-1.1234-.5867l-7.5898.0413z"/><path d="m9.23145 96.9775h39.73005v11.8265h-39.73005z"/></g></svg>