<svg fill="none" height="283" viewBox="0 0 283 283" width="283" xmlns="http://www.w3.org/2000/svg" xmlns:xlink="http://www.w3.org/1999/xlink"><clipPath id="a"><path d="m0 0h283v283h-283z"/></clipPath><g clip-path="url(#a)" fill="#7200a6"><path d="m165.083 224.042h-47.166c-4.213 0-8.106-2.247-10.212-5.896-2.107-3.648-2.107-8.143 0-11.791 2.106-3.648 5.999-5.896 10.212-5.896h47.166c4.213 0 8.106 2.248 10.212 5.896 2.107 3.648 2.107 8.143 0 11.791-2.106 3.649-5.999 5.896-10.212 5.896z"/><path d="m106.125 129.708c0 2.106-1.124 4.053-2.948 5.107-1.824 1.053-4.0718 1.053-5.8958 0-1.824-1.054-2.9479-3.001-2.9479-5.107 0-2.105 1.1239-4.052 2.9479-5.106 1.8241-1.053 4.0718-1.053 5.8958 0 1.824 1.054 2.948 3.001 2.948 5.106z"/><path d="m106.125 153.292c0 2.106-1.124 4.053-2.948 5.107-1.824 1.053-4.0718 1.053-5.8958 0-1.824-1.054-2.9479-3.001-2.9479-5.107 0-2.105 1.1239-4.052 2.9479-5.106 1.8241-1.053 4.0718-1.053 5.8958 0 1.824 1.054 2.948 3.001 2.948 5.106z"/><path d="m106.125 176.875c0 2.106-1.124 4.053-2.948 5.107-1.824 1.053-4.0718 1.053-5.8958 0-1.824-1.054-2.9479-3.001-2.9479-5.107 0-2.105 1.1239-4.052 2.9479-5.106 1.8241-1.053 4.0718-1.053 5.8958 0 1.824 1.054 2.948 3.001 2.948 5.106z"/><path d="m35.375 147.396c0 2.106-1.1239 4.053-2.9479 5.106s-4.0719 1.053-5.8958 0c-1.8241-1.054-2.948-3-2.948-5.106s1.1239-4.053 2.948-5.106c1.824-1.053 4.0719-1.053 5.8958 0 1.824 1.054 2.9479 3 2.9479 5.106z"/><path d="m35.375 170.98c0 2.106-1.1239 4.053-2.9479 5.106s-4.0719 1.053-5.8958 0c-1.8241-1.054-2.948-3-2.948-5.106s1.1239-4.053 2.948-5.106c1.824-1.053 4.0719-1.053 5.8958 0 1.824 1.054 2.9479 3 2.9479 5.106z"/><path d="m35.375 194.563c0 2.106-1.1239 4.053-2.9479 5.106s-4.0719 1.053-5.8958 0c-1.8241-1.054-2.948-3-2.948-5.106s1.1239-4.053 2.948-5.106c1.824-1.053 4.0719-1.053 5.8958 0 1.824 1.054 2.9479 3 2.9479 5.106z"/><path d="m182.771 135.604h-58.959c-2.105 0-4.052-1.124-5.106-2.948-1.053-1.824-1.053-4.072 0-5.896 1.054-1.824 3.001-2.948 5.106-2.948h58.959c2.106 0 4.052 1.124 5.106 2.948 1.053 1.824 1.053 4.072 0 5.896-1.054 1.824-3 2.948-5.106 2.948z"/><path d="m182.771 159.188h-58.959c-2.105 0-4.052-1.124-5.106-2.948-1.053-1.824-1.053-4.072 0-5.896 1.054-1.824 3.001-2.948 5.106-2.948h58.959c2.106 0 4.052 1.124 5.106 2.948 1.053 1.824 1.053 4.072 0 5.896-1.054 1.824-3 2.948-5.106 2.948z"/><path d="m182.771 182.771h-58.959c-2.105 0-4.052-1.124-5.106-2.948-1.053-1.824-1.053-4.072 0-5.896 1.054-1.824 3.001-2.948 5.106-2.948h58.959c2.106 0 4.052 1.124 5.106 2.948 1.053 1.824 1.053 4.072 0 5.896-1.054 1.824-3 2.948-5.106 2.948z"/><path d="m100.229 58.959h82.542c3.256 0 5.896 3.2566 5.896 5.8958v35.3752c0 3.256-2.64 5.896-5.896 5.896h-82.542c-3.2565 0-5.8957-3.257-5.8957-5.896v-35.3752c0-3.2566 2.6392-5.8958 5.8957-5.8958z"/><path d="m212.25 76.6465h41.271c3.256 0 5.896 3.2566 5.896 5.8958v35.3747c0 3.257-2.64 5.896-5.896 5.896h-41.271c-3.257 0-5.896-3.256-5.896-5.896v-35.3747c0-3.2566 2.639-5.8958 5.896-5.8958z"/><path d="m29.4792 76.6465h41.2708c3.2566 0 5.8958 3.2566 5.8958 5.8958v35.3747c0 3.257-2.6392 5.896-5.8958 5.896h-41.2708c-3.2566 0-5.8959-3.256-5.8959-5.896v-35.3747c0-3.2566 2.6393-5.8958 5.8959-5.8958z"/><path d="m265.312 47.167h-47.166c0-4.691-1.864-9.1902-5.181-12.5065-3.316-3.3172-7.816-5.181-12.507-5.181h-117.9163c-4.691 0-9.1902 1.8636-12.5065 5.181-3.3172 3.3163-5.181 7.8158-5.181 12.5065h-47.1667c-4.691 0-9.19019 1.8636-12.50648 5.181-3.31723 3.3163-5.18102 7.8158-5.18102 12.5065v153.2915c0 4.691 1.86363 9.19 5.18102 12.507 3.31629 3.317 7.81578 5.181 12.50648 5.181h47.1667c0 4.691 1.8636 9.19 5.181 12.506 3.3163 3.317 7.8157 5.181 12.5065 5.181h117.9163c4.691 0 9.191-1.863 12.507-5.181 3.317-3.316 5.181-7.816 5.181-12.506h47.166c4.691 0 9.191-1.864 12.507-5.181 3.317-3.317 5.181-7.816 5.181-12.507v-153.2915c0-4.691-1.864-9.1902-5.181-12.5065-3.316-3.3172-7.816-5.181-12.507-5.181zm-247.6245 176.875c-1.5633 0-3.063-.621-4.1686-1.727-1.1064-1.106-1.7273-2.606-1.7273-4.169v-153.2916c0-1.5633.6209-3.063 1.7273-4.1685 1.1055-1.1064 2.6053-1.7273 4.1686-1.7273h47.1667v82.5414h-11.7917c-2.1059 0-4.0526 1.124-5.1063 2.948-1.0529 1.824-1.0529 4.072 0 5.896 1.0539 1.824 3.0005 2.948 5.1063 2.948h11.7917v11.792h-11.7917c-2.1059 0-4.0526 1.123-5.1063 2.947-1.0529 1.825-1.0529 4.072 0 5.896 1.0539 1.824 3.0005 2.948 5.1063 2.948h11.7917v11.792h-11.7917c-2.1059 0-4.0526 1.124-5.1063 2.948-1.0529 1.824-1.0529 4.072 0 5.896 1.0539 1.824 3.0005 2.948 5.1063 2.948h11.7917v23.583zm188.6665 11.792c0 1.563-.621 3.063-1.727 4.168-1.106 1.107-2.605 1.728-4.169 1.728h-117.9164c-1.5633 0-3.063-.621-4.1686-1.728-1.1064-1.105-1.7273-2.605-1.7273-4.168v-188.667c0-1.5633.6209-3.063 1.7273-4.1686 1.1055-1.1064 2.6053-1.7273 4.1686-1.7273h117.9164c1.564 0 3.063.6209 4.169 1.7273 1.106 1.1055 1.727 2.6053 1.727 4.1686zm64.854-17.688c0 1.564-.621 3.063-1.727 4.169-1.105 1.106-2.605 1.727-4.169 1.727h-47.166v-23.583h35.375c2.106 0 4.052-1.124 5.106-2.948 1.053-1.824 1.053-4.072 0-5.896-1.054-1.824-3-2.948-5.106-2.948h-35.375v-11.792h35.375c2.106 0 4.052-1.124 5.106-2.948 1.053-1.824 1.053-4.071 0-5.895-1.054-1.824-3-2.948-5.106-2.948h-35.375v-11.792h35.375c2.106 0 4.052-1.124 5.106-2.948 1.053-1.824 1.053-4.072 0-5.896-1.054-1.824-3-2.948-5.106-2.948h-35.375v-82.5413h47.166c1.564 0 3.063.6209 4.169 1.7273 1.106 1.1055 1.727 2.6053 1.727 4.1686z"/></g></svg>