<svg fill="none" height="14" viewBox="0 0 18 14" width="18" xmlns="http://www.w3.org/2000/svg"><path clip-rule="evenodd" d="m.183594 2.5924v8.8165c0 .5014.199061.9819.553653 1.3358.353863.3546.834373.5536 1.335733.5536h13.85462c.5014 0 .9819-.199 1.3358-.5536.3546-.3539.5535-.8344.5535-1.3358v-8.8165c0-.50125-.1989-.98176-.5535-1.33573-.3539-.354478-.8344-.553545-1.3358-.553545h-13.85462c-.50136 0-.98187.199061-1.335733.553545-.354587.35395-.553653.83448-.553653 1.33573zm16.373906 1.88939v6.92721c0 .167-.0662.3275-.1845.4453-.1178.1183-.2784.1845-.4453.1845h-13.85469c-.16698 0-.3275-.0662-.44531-.1845-.11833-.1178-.18448-.2783-.18448-.4453v-6.92721zm-13.22511 5.66771h2.51907c.3476 0 .62979-.28205.62979-.62976 0-.3476-.28219-.62968-.62979-.62968h-2.51907c-.3476 0-.62978.28208-.62978.62968 0 .34771.28218.62976.62978.62976zm13.22511-6.92744h-15.11444v-.62979c0-.16687.06615-.32739.18448-.4452.11781-.11833.27835-.18448.44531-.18448h13.85465c.1669 0 .3275.06615.4453.18448.1184.11781.1845.27835.1845.4452z" fill="#000" fill-rule="evenodd"/></svg>