<svg fill="none" height="151" viewBox="0 0 147 151" width="147" xmlns="http://www.w3.org/2000/svg"><g fill="#7200a6"><path d="m48.3545 33.5918c1.5431 0 2.7938 1.2507 2.7938 2.7938v16.7628c0 1.5432-1.2507 2.7938-2.7938 2.7938h-16.7628c-1.5432 0-2.7938-1.2507-2.7938-2.7938v-16.7628c0-1.5432 1.2506-2.7938 2.7938-2.7938z"/><path d="m62.326 33.5918c-1.5431 0-2.7938 1.2507-2.7938 2.7938v16.7628c0 1.5432 1.2507 2.7938 2.7938 2.7938h16.7628c1.5432 0 2.7938-1.2507 2.7938-2.7938v-16.7628c0-1.5432-1.2506-2.7938-2.7938-2.7938z"/><path d="m48.3545 64.3262c1.5431 0 2.7938 1.2506 2.7938 2.7938v16.7628c0 1.5431-1.2507 2.7938-2.7938 2.7938h-16.7628c-1.5432 0-2.7938-1.2507-2.7938-2.7938v-16.7628c0-1.5432 1.2506-2.7938 2.7938-2.7938z"/><path d="m62.326 64.3262c-1.5431 0-2.7938 1.2506-2.7938 2.7938v16.7628c0 1.5431 1.2507 2.7938 2.7938 2.7938h16.7628c1.5432 0 2.7938-1.2507 2.7938-2.7938v-16.7628c0-1.5432-1.2506-2.7938-2.7938-2.7938z"/><path clip-rule="evenodd" d="m62.326 95.0576c-1.5431 0-2.7938 1.2507-2.7938 2.7938v16.7626c0 1.543 1.2507 2.794 2.7938 2.794h16.7628c1.5432 0 2.7938-1.251 2.7938-2.794v-16.7626c0-1.5431-1.2506-2.7938-2.7938-2.7938zm8.3814 8.3814c-1.5431 0-2.7938 1.251-2.7938 2.794s1.2507 2.794 2.7938 2.794c1.5432 0 2.7938-1.251 2.7938-2.794s-1.2506-2.794-2.7938-2.794z" fill-rule="evenodd"/><path clip-rule="evenodd" d="m48.3545 95.0576c1.5431 0 2.7938 1.2507 2.7938 2.7938v16.7626c0 1.543-1.2507 2.794-2.7938 2.794h-16.7628c-1.5432 0-2.7938-1.251-2.7938-2.794v-16.7626c0-1.5431 1.2506-2.7938 2.7938-2.7938zm-8.3814 8.3814c1.5431 0 2.7938 1.251 2.7938 2.794s-1.2507 2.794-2.7938 2.794c-1.5432 0-2.7938-1.251-2.7938-2.794s1.2506-2.794 2.7938-2.794z" fill-rule="evenodd"/><path d="m79.0863 125.788c1.5431 0 2.7938 1.251 2.7938 2.794v2.794c0 1.543-1.2507 2.793-2.7938 2.793h-47.4946c-1.5432 0-2.7938-1.25-2.7938-2.793v-2.794c0-1.543 1.2506-2.794 2.7938-2.794z"/><path clip-rule="evenodd" d="m98.6391 19.6239c0-1.5432-1.2507-2.7938-2.7938-2.7938h-81.0202c-1.5432 0-2.7939 1.2506-2.7939 2.7938v128.5151c0 1.543 1.2507 2.794 2.7939 2.794h81.0202c1.5431 0 2.7938-1.251 2.7938-2.794zm-11.1752 5.5876c1.5431 0 2.7938 1.2506 2.7938 2.7938v111.7517c0 1.543-1.2507 2.794-2.7938 2.794h-64.2574c-1.5432 0-2.7938-1.251-2.7938-2.794v-111.7517c0-1.5432 1.2506-2.7938 2.7938-2.7938z" fill-rule="evenodd"/><path d="m3.65318.0673828c-1.54316 0-2.793805 1.2506572-2.793805 2.7937972v2.7938c0 1.54316 1.250655 2.7938 2.793805 2.7938h100.57682c1.543 0 2.794 1.25066 2.794 2.79382v136.8964c0 1.543 1.25 2.794 2.794 2.794h2.793c1.544 0 2.794-1.251 2.794-2.794v-145.27782c0-1.54315-1.25-2.7937972-2.794-2.7937972z"/><path clip-rule="evenodd" d="m140.552 16.8301h-25.144v39.1132h25.144c3.087 0 5.588-2.5013 5.588-5.5876v-27.938c0-3.0858-2.501-5.5876-5.588-5.5876zm-12.928 8.4125c-.271-.1031-.566.0601-.644.3564l-3.171 11.9391c-.091.3405.148.6794.478.6794h4.832c.318 0 .554.3154.486.6482l-1.541 7.4941c-.1.4873.154.9778.593 1.1454.45.1708.947-.0541 1.146-.519l5.116-11.9037c.152-.353-.089-.7562-.452-.7562h-4.912c-.343 0-.583-.3613-.471-.7072l2.084-6.4678c.089-.2767-.047-.579-.304-.6766z" fill-rule="evenodd"/></g></svg>