<svg fill="none" height="125" viewBox="0 0 91 125" width="91" xmlns="http://www.w3.org/2000/svg"><g fill="#7200a6"><path d="m76.0688 72.8558c-.835-1.67-2.8387-2.1713-4.5087-1.3362-1.67.835-2.1713 2.8387-1.3362 4.5087 2.8387 5.3437 4.0081 11.3563 3.1731 17.368-2.0037 15.5307-16.366 26.5527-32.064 24.3817-5.01-.668-9.5187-2.672-13.1931-5.511-8.0163-6.012-12.6919-15.865-11.1888-26.386 2.0038-15.531 16.3661-26.553 32.0641-24.382 2.0037.3338 4.0081.835 6.0118 1.5031 1.67.6682 3.1732 1.3363 4.6763 2.1713 1.5031 1.0019 3.6737.3338 4.5087-1.1688 1.0019-1.5031.3338-3.6737-1.1688-4.5087-2.505-1.5031-5.1768-2.505-8.0162-3.34v-38.076c0-3.6737-1.67-8.0163-9.3519-8.0163h-3.34c0-5.34368-4.3419-9.518678-9.6863-9.518678h-9.5187c-5.3437 0-9.6863 4.341858-9.6863 9.518678h-3.34c-7.68185 0-9.351847 4.3419-9.351847 8.0163v86.0051c0 3.674 1.669997 8.016 9.351847 8.016h8.5169c5.3437 6.346 13.1931 10.855 22.044 12.191 1.5031.167 3.1731.334 4.6763.334 17.368 0 32.398-12.858 34.736-30.3937 1.0018-7.5156-.3338-14.863-4.0082-21.376zm-68.80398-54.776c0-.6681.16688-1.0019.16688-1.0019s.50123-.5012 2.505-.5012h10.02v-6.5132c0-1.66997 1.3362-3.00625 3.0063-3.00625h9.5187c1.67 0 3.0063 1.33622 3.0063 3.00625v6.5132h10.02c2.0037 0 2.505.5012 2.505.5012s.1669.1669.1669 1.0019z"/><path d="m41.3333 107.758c-1.0019 0-2.0037-.333-2.6719-1.168l-15.197-16.3664c-1.3362-1.5031-1.1688-3.6737.1669-5.01 1.5031-1.3362 3.6737-1.1687 5.01.1669l12.1913 13.1932 43.086-59.285c1.1688-1.67 3.34-2.0038 5.01-.835 1.5031 1.1687 2.0037 3.34.835 5.01l-45.5924 62.7923c-.6681.835-1.67 1.336-2.6719 1.503l-.1669-.001z"/></g></svg>