<svg fill="none" height="18" viewBox="0 0 19 18" width="19" xmlns="http://www.w3.org/2000/svg"><g fill="#101820"><path d="m9.5 16.875c-2.08858 0-4.09162-.8297-5.56847-2.3065-1.47684-1.4769-2.30653-3.4799-2.30653-5.5685 0-2.08858.82969-4.09162 2.30653-5.56847 1.47685-1.47684 3.47989-2.30653 5.56847-2.30653 2.0886 0 4.0916.82969 5.5685 2.30653 1.4768 1.47685 2.3065 3.47989 2.3065 5.56847 0 2.0886-.8297 4.0916-2.3065 5.5685-1.4769 1.4768-3.4799 2.3065-5.5685 2.3065zm0 1.125c2.3869 0 4.6761-.9482 6.364-2.636 1.6878-1.6879 2.636-3.9771 2.636-6.364 0-2.38695-.9482-4.67613-2.636-6.36396-1.6879-1.687828-3.9771-2.63604-6.364-2.63604-2.38695 0-4.67613.948212-6.36396 2.63604-1.68783 1.68783-2.63604 3.97701-2.63604 6.36396 0 2.3869.94821 4.6761 2.63604 6.364 1.68783 1.6878 3.97701 2.636 6.36396 2.636z"/><path d="m12.841 5.59111c-.008.00777-.0155.01603-.0225.02475l-3.90714 4.97814-2.35462-2.35576c-.15995-.14904-.3715-.23018-.59009-.22633-.21859.00386-.42715.09241-.58174.247s-.24314.36315-.24699.58174c-.00386.21859.07728.43014.22632.59008l2.97675 2.97787c.08019.0801.17568.1431.28078.1855.1051.0423.21765.063.33093.0609.11329-.0021.22499-.0269.32845-.0732.10345-.0462.19654-.1127.27371-.1957l4.49104-5.61374c.1529-.1605.2365-.37474.2327-.5964-.0038-.22165-.0946-.43292-.2529-.58812s-.3714-.24186-.593-.24125c-.2217.00062-.4343.08845-.5917.24452z"/></g></svg>