<svg xmlns="http://www.w3.org/2000/svg" width="17" height="17" fill="none"><g clip-path="url(#a)"><path fill="#A0FF97" fill-rule="evenodd" d="M8.5.694c-4.036 0-7.333 3.297-7.333 7.333 0 4.037 3.297 7.334 7.333 7.334 4.037 0 7.334-3.297 7.334-7.334S12.537.694 8.5.694m0 13.593c-3.445 0-6.26-2.815-6.26-6.26s2.815-6.26 6.26-6.26 6.26 2.815 6.26 6.26-2.815 6.26-6.26 6.26m-1.76-3.074a.65.65 0 0 1-.46-.19L4.153 8.896a.66.66 0 0 1-.099-.827.652.652 0 0 1 1.01-.106l1.608 1.609c.037.037.099.037.137 0l4.537-4.537a.654.654 0 0 1 1.008.106c.172.259.12.608-.099.827l-5.054 5.054a.65.65 0 0 1-.46.19z" clip-rule="evenodd"/></g><defs><clipPath id="a"><path fill="#fff" d="M.5.027h16v16H.5z"/></clipPath></defs></svg>