<svg width="17" height="17" viewBox="0 0 17 17" fill="none" xmlns="http://www.w3.org/2000/svg">
<g clip-path="url(#clip0_190_451)">
<path fill-rule="evenodd" clip-rule="evenodd" d="M8.50033 0.693848C4.46373 0.693848 1.16699 3.99059 1.16699 8.02718C1.16699 12.0638 4.46373 15.3605 8.50033 15.3605C12.5369 15.3605 15.8337 12.0638 15.8337 8.02718C15.8337 3.99059 12.5369 0.693848 8.50033 0.693848ZM8.50033 14.2866C5.05513 14.2866 2.24092 11.4722 2.24092 8.02718C2.24092 4.58214 5.05529 1.76777 8.50033 1.76777C11.9454 1.76777 14.7597 4.58214 14.7597 8.02718C14.7597 11.4722 11.9454 14.2866 8.50033 14.2866ZM6.74016 11.2133C6.56765 11.2133 6.40151 11.1445 6.27929 11.0223L4.15441 8.89742C3.93415 8.67716 3.88386 8.32896 4.05511 8.06988C4.29127 7.71276 4.77698 7.6771 5.06408 7.96421L6.6727 9.57283C6.71026 9.61039 6.77201 9.61039 6.80956 9.57283L11.3465 5.03594C11.6316 4.75076 12.1186 4.78512 12.3554 5.14161C12.5267 5.40069 12.4757 5.74955 12.2561 5.96915L7.20231 11.023C7.08008 11.1452 6.91394 11.2139 6.74143 11.2139L6.74016 11.2133Z" fill="#A0FF97"/>
</g>
<defs>
<clipPath id="clip0_190_451">
<rect width="16" height="16" fill="white" transform="translate(0.5 0.0273438)"/>
</clipPath>
</defs>
</svg>
