<svg width="33" height="33" viewBox="0 0 33 33" fill="none" xmlns="http://www.w3.org/2000/svg">
<g opacity="0.5">
<path d="M18.7824 26.896H17.9374V23.706C17.9374 23.6068 17.8973 23.5117 17.8259 23.4416C17.7546 23.3714 17.6578 23.332 17.5568 23.332H15.4406C15.3396 23.332 15.2428 23.3714 15.1715 23.4416C15.1001 23.5117 15.06 23.6068 15.06 23.706V26.896H14.215C14.1403 26.8955 14.0671 26.9167 14.0046 26.9568C13.942 26.997 13.8929 27.0543 13.8632 27.1217C13.8336 27.1891 13.8248 27.2635 13.838 27.3358C13.8511 27.408 13.8856 27.4749 13.9372 27.528L16.2208 29.8803C16.2565 29.9177 16.2995 29.9475 16.3473 29.9678C16.3951 29.9882 16.4466 29.9987 16.4987 29.9987C16.5508 29.9987 16.6023 29.9882 16.6501 29.9678C16.6979 29.9475 16.7409 29.9177 16.7765 29.8803L19.0602 27.528C19.1118 27.4749 19.1463 27.408 19.1594 27.3358C19.1726 27.2635 19.1638 27.1891 19.1342 27.1217C19.1045 27.0543 19.0554 26.997 18.9928 26.9568C18.9303 26.9167 18.8571 26.8955 18.7824 26.896Z" fill="white"/>
<path d="M10.8663 25.8704H10.2435V23.6691C10.2435 23.5797 10.2134 23.494 10.1598 23.4308C10.1063 23.3675 10.0336 23.332 9.95784 23.332H8.36668C8.29092 23.332 8.21826 23.3675 8.16468 23.4308C8.11111 23.494 8.08101 23.5797 8.08101 23.6691V25.8704H7.45541C7.39934 25.87 7.34441 25.889 7.29746 25.9252C7.25051 25.9614 7.21362 26.0131 7.19139 26.0738C7.16915 26.1345 7.16256 26.2017 7.17243 26.2668C7.18229 26.3319 7.20818 26.3922 7.24687 26.4401L8.96086 28.5604C8.98755 28.5936 9.01967 28.62 9.05528 28.638C9.09088 28.6561 9.12922 28.6654 9.16797 28.6654C9.20672 28.6654 9.24506 28.6561 9.28066 28.638C9.31627 28.62 9.34839 28.5936 9.37508 28.5604L11.0891 26.4401C11.1276 26.3924 11.1534 26.3325 11.1634 26.2676C11.1733 26.2028 11.167 26.136 11.1451 26.0754C11.1232 26.0148 11.0868 25.963 11.0403 25.9266C10.9938 25.8902 10.9392 25.8706 10.8834 25.8704H10.8663Z" fill="white"/>
<path d="M25.5275 25.8706H24.902V23.6692C24.902 23.5797 24.8719 23.494 24.8183 23.4308C24.7648 23.3675 24.6921 23.332 24.6164 23.332H23.0254C22.9497 23.332 22.877 23.3675 22.8235 23.4308C22.7699 23.494 22.7398 23.5797 22.7398 23.6692V25.8706H22.1172C22.0611 25.8706 22.0063 25.8902 21.9596 25.9267C21.9128 25.9633 21.8763 26.0153 21.8544 26.0762C21.8328 26.1369 21.8267 26.2037 21.8368 26.2684C21.847 26.3331 21.8729 26.3928 21.9115 26.4403L23.6252 28.5608C23.6518 28.5937 23.6837 28.6199 23.719 28.6379C23.7544 28.6558 23.7924 28.6652 23.8309 28.6654C23.8699 28.6656 23.9084 28.6565 23.9443 28.6385C23.9802 28.6206 24.0125 28.5941 24.0394 28.5608L25.7531 26.4403C25.7918 26.3924 25.8177 26.3322 25.8276 26.267C25.8374 26.2019 25.8308 26.1348 25.8086 26.074C25.7864 26.0133 25.7495 25.9616 25.7026 25.9254C25.6556 25.8892 25.6007 25.8702 25.5446 25.8706H25.5275Z" fill="white"/>
<path fill-rule="evenodd" clip-rule="evenodd" d="M26.8628 12.0067C26.869 12.005 26.8754 12.005 26.8816 12.0067C27.594 12.6539 28.105 13.5211 28.3456 14.4911C28.5862 15.4612 28.5448 16.4875 28.227 17.4314C27.9091 18.3753 27.3302 19.1914 26.5683 19.7695C25.8064 20.3475 24.8983 20.6597 23.9666 20.6639H9.09185C7.8845 20.6751 6.72245 20.169 5.86134 19.2569C5.00023 18.3448 4.5106 17.1014 4.50017 15.8003C4.48974 14.4992 4.95935 13.2468 5.8057 12.3188C6.65205 11.3908 7.80581 10.8632 9.01317 10.8519C9.02492 9.20526 9.6357 7.62929 10.7142 6.46279C10.7202 6.4603 10.7269 6.4603 10.7329 6.46279C11.4369 5.71237 12.308 5.16963 13.2627 4.88673C14.2174 4.60383 15.2236 4.59027 16.1845 4.84735C17.1455 5.10443 18.029 5.62351 18.7501 6.35473C19.4712 7.08594 20.0057 8.00472 20.3022 9.02278C20.8626 9.04354 21.4038 9.2479 21.8536 9.6086C22.3035 9.96931 22.6406 10.4692 22.8201 11.0417C23.5172 10.8531 24.2455 10.8422 24.9472 11.0097C25.6489 11.1772 26.3048 11.5186 26.8628 12.0067ZM11.268 16.5787C11.5133 16.6712 11.7782 16.7174 12.0627 16.7174C12.372 16.7174 12.6529 16.6641 12.9053 16.5574C13.1578 16.4507 13.3711 16.2961 13.5453 16.0934L13.0973 15.6667C12.9622 15.8161 12.8111 15.9281 12.644 16.0027C12.4769 16.0738 12.2956 16.1094 12.1 16.1094C11.9044 16.1094 11.7249 16.0774 11.5613 16.0134C11.4013 15.9494 11.2609 15.8587 11.14 15.7414C11.0227 15.6241 10.9302 15.4854 10.8627 15.3254C10.7987 15.1654 10.7667 14.9894 10.7667 14.7974C10.7667 14.6054 10.7987 14.4294 10.8627 14.2694C10.9302 14.1094 11.0227 13.9707 11.14 13.8534C11.2609 13.7361 11.4013 13.6454 11.5613 13.5814C11.7249 13.5174 11.9044 13.4854 12.1 13.4854C12.2956 13.4854 12.4769 13.5227 12.644 13.5974C12.8111 13.6685 12.9622 13.777 13.0973 13.9227L13.5453 13.5014C13.3711 13.2952 13.1578 13.1405 12.9053 13.0374C12.6529 12.9307 12.3738 12.8774 12.068 12.8774C11.78 12.8774 11.5151 12.9254 11.2733 13.0214C11.0316 13.1138 10.82 13.2472 10.6387 13.4214C10.4573 13.5921 10.3169 13.7947 10.2173 14.0294C10.1178 14.2641 10.068 14.5201 10.068 14.7974C10.068 15.0747 10.1178 15.3307 10.2173 15.5654C10.3169 15.8001 10.4556 16.0045 10.6333 16.1787C10.8147 16.3494 11.0262 16.4827 11.268 16.5787ZM15.2889 16.5734C15.5342 16.6694 15.8027 16.7174 16.0942 16.7174C16.3822 16.7174 16.6471 16.6694 16.8889 16.5734C17.1342 16.4774 17.3475 16.3441 17.5289 16.1734C17.7102 16.0027 17.8507 15.8001 17.9502 15.5654C18.0498 15.3307 18.0995 15.0747 18.0995 14.7974C18.0995 14.5201 18.0498 14.2658 17.9502 14.0347C17.8507 13.8001 17.7102 13.5974 17.5289 13.4267C17.3475 13.2525 17.1342 13.1174 16.8889 13.0214C16.6471 12.9254 16.3804 12.8774 16.0889 12.8774C15.8009 12.8774 15.5342 12.9254 15.2889 13.0214C15.0435 13.1174 14.8302 13.2525 14.6489 13.4267C14.4675 13.5974 14.3271 13.8001 14.2275 14.0347C14.128 14.2658 14.0782 14.5201 14.0782 14.7974C14.0782 15.0747 14.128 15.3307 14.2275 15.5654C14.3271 15.7965 14.4675 15.9992 14.6489 16.1734C14.8302 16.3441 15.0435 16.4774 15.2889 16.5734ZM16.6115 16.0134C16.4515 16.0774 16.2773 16.1094 16.0889 16.1094C15.9004 16.1094 15.7262 16.0774 15.5662 16.0134C15.4062 15.9494 15.2675 15.8587 15.1502 15.7414C15.0329 15.6205 14.9404 15.4801 14.8729 15.3201C14.8089 15.1601 14.7769 14.9858 14.7769 14.7974C14.7769 14.6054 14.8089 14.4312 14.8729 14.2747C14.9404 14.1147 15.0329 13.9761 15.1502 13.8587C15.2711 13.7378 15.4098 13.6454 15.5662 13.5814C15.7262 13.5174 15.9004 13.4854 16.0889 13.4854C16.2773 13.4854 16.4515 13.5174 16.6115 13.5814C16.7715 13.6454 16.9102 13.7378 17.0275 13.8587C17.1449 13.9761 17.2355 14.1147 17.2995 14.2747C17.3671 14.4312 17.4009 14.6054 17.4009 14.7974C17.4009 14.9894 17.3671 15.1654 17.2995 15.3254C17.2355 15.4818 17.1449 15.6205 17.0275 15.7414C16.9102 15.8587 16.7715 15.9494 16.6115 16.0134ZM18.681 16.2001V16.6641H21.433V16.0774H19.6709L20.6704 15.1281C20.841 14.9645 20.9708 14.817 21.0597 14.6854C21.1486 14.5538 21.209 14.4294 21.241 14.3121C21.273 14.1912 21.289 14.0703 21.289 13.9494C21.289 13.729 21.2339 13.5387 21.1237 13.3787C21.017 13.2187 20.8624 13.0961 20.6597 13.0107C20.4606 12.9218 20.2259 12.8774 19.9557 12.8774C19.6499 12.8774 19.3726 12.9325 19.1237 13.0427C18.8784 13.1494 18.6828 13.3005 18.537 13.4961L19.0224 13.8694C19.129 13.7378 19.2553 13.6401 19.401 13.5761C19.5504 13.5121 19.7157 13.4801 19.897 13.4801C20.1246 13.4801 20.297 13.5281 20.4144 13.6241C20.5317 13.7165 20.5904 13.8481 20.5904 14.0187C20.5904 14.0863 20.5797 14.1592 20.5584 14.2374C20.5406 14.3121 20.5015 14.3938 20.441 14.4827C20.3806 14.5716 20.2882 14.6747 20.1637 14.7921L18.681 16.2001Z" fill="white"/>
</g>
</svg>
