<svg fill="none" height="94" viewBox="0 0 94 94" width="94" xmlns="http://www.w3.org/2000/svg" xmlns:xlink="http://www.w3.org/1999/xlink"><linearGradient id="a" gradientUnits="userSpaceOnUse" x1="47" x2="47" y1=".125" y2="93.875"><stop offset="0" stop-color="#e4002b"/><stop offset="1" stop-color="#7200a6"/></linearGradient><path d="m47 .125c-25.8433 0-46.875 21.0317-46.875 46.875s21.0317 46.875 46.875 46.875 46.875-21.0317 46.875-46.875-21.0317-46.875-46.875-46.875zm24.0933 33.4683-28.125 28.125c-.625.5938-1.4062.9063-2.2187.9063s-1.5938-.3125-2.2188-.9063l-12.5-12.5c-1.2187-1.2187-1.2187-3.2187 0-4.4375 1.2188-1.2187 3.2188-1.2187 4.4375 0l10.2817 10.3125 25.9067-25.9375c1.2187-1.2187 3.2187-1.2187 4.4375 0 1.2187 1.2188 1.2187 3.2188 0 4.4375z" fill="url(#a)"/></svg>