<svg fill="none" height="24" viewBox="0 0 24 24" width="24" xmlns="http://www.w3.org/2000/svg"><path clip-rule="evenodd" d="m13.4613 22.0005c-.1896 0-.3762-.0375-.5532-.1106-.4444-.1857-.7667-.5772-.8619-1.0486l-1.4814-7.4061-7.40512-1.4814c-.78015-.1568-1.28806-.9186-1.13126-1.6988.09523-.4723.41653-.86478.86191-1.04851l17.11417-7.09634c.177-.07215.3626-.10966.5521-.10966.5868 0 1.1101.34919 1.3343.88981.1471.35592.1471.7484 0 1.10432l-7.0964 17.11508c-.1481.3569-.4252.6339-.782.7811-.177.0731-.3617.1097-.5512.1097zm-10.0168-11.4607 7.8765 1.5757c.2866.0568.5089.279.5656.5656l1.5757 7.8765 7.0954-17.11412z" fill="#222" fill-rule="evenodd"/></svg>