<svg fill="none" height="24" viewBox="0 0 24 24" width="24" xmlns="http://www.w3.org/2000/svg"><path clip-rule="evenodd" d="m9 13.3087c-1.35976-.9487-2.25-2.5246-2.25-4.30876v-1.5c0-.3975.15828-.77922.43954-1.06046s.66296-.43954 1.06046-.43954h7.5c.3975 0 .7792.15828 1.0605.43954.2812.28126.4395.66296.4395 1.06046v1.5c0 1.78426-.8902 3.35996-2.25 4.30876v7.6912c0 .3975-.1583.7793-.4395 1.0605-.2813.2812-.663.4395-1.0605.4395h-3c-.3975 0-.77922-.1582-1.06046-.4395s-.43954-.663-.43954-1.0605zm4.5.7238c-.4755.1417-.9788.2175-1.5.2175s-1.0245-.0758-1.5-.2175v6.9676h3zm-1.5-1.2825c2.0708 0 3.75-1.6792 3.75-3.75v-1.5h-7.5v1.5c0 2.0708 1.67922 3.75 3.75 3.75zm-.75-10.5c0-.41398.336-.75.75-.75s.75.33602.75.75v1.5c0 .41398-.336.75-.75.75s-.75-.33602-.75-.75zm3.8504.42898c.207-.35852.666-.48148 1.0245-.27454.3586.20704.4815.66602.2746 1.02454l-.75 1.29898c-.2071.35852-.666.48148-1.0246.27454-.3585-.20704-.4814-.66602-.2745-1.02454zm-7.5.75c-.20704-.35852-.08398-.8175.27454-1.02454s.8175-.08398 1.02454.27454l.75 1.29898c.20704.35852.08398.8175-.27454 1.02454s-.8175.08398-1.02454-.27454z" fill="#000" fill-rule="evenodd"/></svg>