<svg fill="none" height="161" viewBox="0 0 161 161" width="161" xmlns="http://www.w3.org/2000/svg" xmlns:xlink="http://www.w3.org/1999/xlink"><linearGradient id="a"><stop offset="0" stop-color="#e4002b"/><stop offset="1" stop-color="#7200a6"/></linearGradient><linearGradient id="b" gradientUnits="userSpaceOnUse" x1="29.6999" x2="137.023" xlink:href="#a" y1="153.271" y2="153.271"/><linearGradient id="c" gradientUnits="userSpaceOnUse" x1="20.4995" x2="147.5" xlink:href="#a" y1="66.1709" y2="66.1709"/><path d="m15.7773 146.831c0 3.542 2.8983 6.44 6.44 6.44h116.2417c3.704 0 6.44-2.898 6.44-6.44v-68.4248h-129.1217z" fill="url(#b)"/><path d="m150.535 36.2249h-18.193c1.771-4.025 2.093-8.6942.966-13.0409-1.771-6.9233-6.924-12.3967-13.846-14.48999-6.762-2.09327-14.168-.64411-19.6425 4.02499l-19.32 16.422-19.32-16.422c-5.4741-4.66912-12.88-6.11826-19.642-4.02499-6.7617 2.09329-11.9141 7.56669-13.846 14.48999-1.1268 4.5083-.6441 9.0159.9659 13.0409h-18.193c-3.54172 0-6.43999 2.8982-6.43999 6.44v17.066c0 3.5417 2.89827 6.44 6.43999 6.44h139.9086c3.542 0 6.44-2.8983 6.44-6.44v-16.905c.161-3.5418-2.737-6.6009-6.279-6.6009zm-42.182-13.685c2.093-1.7709 4.669-2.2542 7.245-1.4492 2.575.805 4.346 2.7368 5.151 5.3133.644 2.2541.161 4.6691-1.288 6.6009-1.449 1.9317-3.703 2.8982-5.957 2.8982h-20.7686zm-67.9424 3.8641c.6441-2.5759 2.5759-4.5083 5.1518-5.3133.805-.3217 1.61-.3217 2.415-.3217 1.7708 0 3.5417.6441 4.83 1.7708l15.778 13.3633h-20.769c-2.415 0-4.5083-1.1268-5.9568-2.8983-1.61-1.7708-2.0932-4.1858-1.4491-6.6008z" fill="url(#c)"/></svg>