<svg fill="none" height="24" viewBox="0 0 24 24" width="24" xmlns="http://www.w3.org/2000/svg"><path d="m22.1241 4.5h-4.3276c.3901-.4329.5967-1.0004.5762-1.58282-.0205-.58234-.2665-1.1339-.6862-1.53828-.4195-.404377-.9798-.629917-1.5625-.628897h-.375c-.791.001172-1.5649.229541-2.2296.657957-.6649.42844-1.1926 1.03882-1.5204 1.7586-.3279-.71976-.8556-1.33016-1.5204-1.7586-.6648-.428437-1.43872-.656797-2.22964-.657957h-.375c-.58274-.000937-1.14296.2246-1.5625.628977-.41954.40438-.66554.95594-.68602 1.53828-.02046.58234.1861 1.14984.57618 1.58274h-4.3276c-.29828.00032-.58422.11899-.79516.32984-.210857.21094-.329537.49688-.329837.79516v3c.000313.29828.118984.58422.329837.79516.21094.21086.49688.32954.79516.32984h.375v12.375c.00032.2983.11899.5842.32984.7952.21094.2108.49688.3295.79516.3298h17.24998c.2983-.0003.5842-.119.7952-.3298.2108-.211.3295-.4969.3298-.7952v-12.375h.375c.2983-.00031.5842-.11898.7952-.32984.2108-.21094.3295-.49688.3298-.79516v-3c-.0003-.29828-.119-.58422-.3298-.79516-.211-.21086-.4969-.32954-.7952-.32984zm-6.375-3h.375c.5358 0 1.0311.28586 1.299.75s.2679 1.03586 0 1.5-.7632.75-1.299.75h-3.7292c.0933-.8246.4867-1.5861 1.1053-2.1394.6186-.55328 1.4191-.8596 2.249-.86062zm-9.37502 1.5c.00047-.39766.1586-.77898.43984-1.06016.28118-.28124.6625-.43938 1.06016-.43984h.375c.82992.00102 1.6304.30734 2.24902.86062.6186.55328 1.012 1.31476 1.1053 2.1394h-3.7292c-.39766-.00046-.77898-.15859-1.06016-.43984-.28124-.28118-.43938-.6625-.43984-1.06016zm-4.875 5.625v-3c.00016-.09945.03969-.19468.11-.265.07032-.07031.16555-.10984.265-.11h7.5v3.75h-7.5c-.09945-.00015-.19468-.03968-.265-.11-.07031-.07031-.10984-.16554-.11-.265zm1.5 13.5v-12.375h6.375v12.75h-6c-.09945-.0002-.19468-.0397-.265-.11-.07031-.0703-.10984-.1655-.11-.265zm7.12502-16.875h3.75v17.25h-3.75zm10.875 16.875c-.0002.0995-.0397.1947-.11.265s-.1656.1098-.265.11h-6v-12.75h6.375zm1.5-13.5c-.0002.09946-.0397.19469-.11.265-.0703.07032-.1656.10985-.265.11h-7.5v-3.75h7.5c.0994.00016.1947.03969.265.11.0703.07032.1098.16555.11.265z" fill="#fff"/></svg>