<svg fill="none" height="24" viewBox="0 0 24 24" width="24" xmlns="http://www.w3.org/2000/svg"><path d="m5.42014 14.4651-.82275 3.0714-3.00713.0636c-.898689-1.6668-1.40844-3.5739-1.40844-5.6006 0-1.9597.476605-3.80779 1.32142-5.43505h.00065l2.67718.49083 1.17277 2.66112c-.24545.7156-.37924 1.4838-.37924 2.2831.00009.8676.15724 1.6987.44554 2.4656z" fill="#fbbb00"/><path d="m23.6117 9.79199c.1357.71491.2065 1.45321.2065 2.20781 0 .8461-.089 1.6714-.2584 2.4675-.5753 2.7091-2.0786 5.0747-4.1611 6.7487l-.0006-.0006-3.3721-.1721-.4772-2.9792c1.3818-.8104 2.4617-2.0786 3.0305-3.5968h-6.3195v-4.67531h6.4117z" fill="#518ef8"/><path d="m19.3981 21.2158.0006.0006c-2.0253 1.628-4.5981 2.602-7.3987 2.602-4.50063 0-8.4136-2.5156-10.40972-6.2175l3.82987-3.1351c.99804 2.6636 3.56752 4.5598 6.57985 4.5598 1.2948 0 2.5078-.3501 3.5487-.9611z" fill="#28b446"/><path d="m19.5436 2.90241-3.8286 3.1344c-1.0773-.67336-2.3507-1.06234-3.7149-1.06234-3.08058 0-5.69812 1.9831-6.64616 4.74223l-3.85001-3.15195h-.00064c1.96689-3.7922 5.92922-6.383109 10.49681-6.383109 2.8675 0 5.4967 1.021439 7.5435 2.720769z" fill="#f14336"/></svg>