<svg fill="none" height="20" viewBox="0 0 18 20" width="18" xmlns="http://www.w3.org/2000/svg"><g fill="#000"><path d="m2.44799 3.07961h.48c.14398 0 .24-.09602.24-.24s-.09602-.24-.24-.24h-.48c-.88796 0-1.607963.72-1.607963 1.60796v13.58403c0 .8879.720003 1.6079 1.607963 1.6079h13.58401c.8879 0 1.6079-.72 1.6079-1.6079l.0001-13.58403c0-.88796-.72-1.60796-1.6079-1.60796h-.5521c-.144 0-.24.09602-.24.24s.096.24.24.24h.5521c.6239 0 1.1279.50398 1.1279 1.12796v2.952h-15.83997v-2.952c0-.62398.50398-1.12796 1.12796-1.12796zm14.71201 4.56v10.15199c0 .624-.504 1.128-1.128 1.128h-13.58397c-.62398 0-1.12796-.504-1.12796-1.128v-10.15199z"/><path d="m6.19202 2.83961c0 .14398.09601.24.24.24h5.59198c.144 0 .24-.09602.24-.24s-.096-.24-.24-.24h-5.59198c-.12 0-.24.09602-.24.24z"/><path d="m3.95999 12.1996h1.2c.40796 0 .72-.3121.72-.72v-1.2c0-.40799-.31204-.72003-.72-.72003h-1.2c-.40796 0-.72.31204-.72.72003v1.2c0 .4079.31204.72.72.72zm-.24-1.92c0-.144.09602-.24.24-.24h1.2c.14398 0 .24.096.24.24v1.2c0 .144-.09602.24-.24.24h-1.2c-.14398 0-.24-.096-.24-.24z"/><path d="m8.51993 12.1996h1.2c.40797 0 .71997-.3121.71997-.72v-1.2c0-.40799-.312-.72003-.71997-.72003h-1.2c-.40796 0-.72.31204-.72.72003v1.2c0 .4079.31204.72.72.72zm-.24-1.92c0-.144.09601-.24.24-.24h1.2c.14398 0 .24.096.24.24v1.2c0 .144-.09602.24-.24.24h-1.2c-.14399 0-.24-.096-.24-.24z"/><path d="m13.08 12.1996h1.2c.4079 0 .72-.3121.72-.72v-1.2c0-.40799-.3121-.72003-.72-.72003h-1.2c-.408 0-.72.31204-.72.72003v1.2c0 .4079.312.72.72.72zm-.24-1.92c0-.144.096-.24.24-.24h1.2c.144 0 .24.096.24.24v1.2c0 .144-.096.24-.24.24h-1.2c-.144 0-.24-.096-.24-.24z"/><path d="m3.95999 16.7601h1.2c.40796 0 .72-.312.72-.72v-1.2c0-.4079-.31204-.72-.72-.72h-1.2c-.40796 0-.72.3121-.72.72v1.2c0 .408.31204.72.72.72zm-.24-1.92c0-.144.09602-.24.24-.24h1.2c.14398 0 .24.096.24.24v1.2c0 .144-.09602.24-.24.24h-1.2c-.14398 0-.24-.096-.24-.24z"/><path d="m8.51993 16.7601h1.2c.40797 0 .71997-.312.71997-.72v-1.2c0-.4079-.312-.72-.71997-.72h-1.2c-.40796 0-.72.3121-.72.72v1.2c0 .408.31204.72.72.72zm-.24-1.92c0-.144.09601-.24.24-.24h1.2c.14398 0 .24.096.24.24v1.2c0 .144-.09602.24-.24.24h-1.2c-.14399 0-.24-.096-.24-.24z"/><path d="m13.08 16.7601h1.2c.4079 0 .72-.312.72-.72v-1.2c0-.4079-.3121-.72-.72-.72h-1.2c-.408 0-.72.3121-.72.72v1.2c0 .408.312.72.72.72zm-.24-1.92c0-.144.096-.24.24-.24h1.2c.144 0 .24.096.24.24v1.2c0 .144-.096.24-.24.24h-1.2c-.144 0-.24-.096-.24-.24z"/><path d="m12.84 1.63992v2.4c0 .40796.312.72.72.72h.48c.4079 0 .72-.31204.72-.72v-2.4c0-.40796-.3121-.719998-.72-.719998h-.48c-.408 0-.72.312038-.72.719998zm1.44 0v2.4c0 .14399-.0961.24-.24.24h-.48c-.144 0-.24-.09601-.24-.24v-2.4c0-.14398.096-.24.24-.24h.48c.1439 0 .24.09602.24.24z"/><path d="m4.91997 4.75992c.40796 0 .72-.31204.72-.72v-2.4c0-.40796-.31204-.719998-.72-.719998h-.48c-.40796 0-.72.312038-.72.719998v2.4c0 .40796.31204.72.72.72zm-.72-.72v-2.4c0-.14398.09602-.24.24-.24h.48c.14398 0 .24.09602.24.24v2.4c0 .14399-.09602.24-.24.24h-.48c-.14398 0-.24-.09601-.24-.24z"/></g></svg>