<svg fill="none" height="24" viewBox="0 0 18 24" width="18" xmlns="http://www.w3.org/2000/svg"><path d="m.758617 23.2815c.1125.0785.244383.1181.385003.1181.11914 0 .24406-.0285.36828-.0859l-.17336-.3744.17422.3739 3.25319-1.5143c.55219-.2564 1.25804-.8483 1.60774-1.3472l10.62181-15.17022c.9413-1.34438.6135-3.2036-.7307-4.145-1.3445-.940623-3.2038-.613203-4.1454.7314l-10.6224 15.17022c-.34922.4985-.663905 1.3647-.716185 1.9712l-.30976 3.575.42484.0369-.42516-.036c-.025234.2967.079688.5503.28766.6962zm12.021383-20.95197c.686-.97984 2.0418-1.2193 3.0224-.53296.9797.68632 1.2186 2.0422.5323 3.0224l-1.2808 1.8286-3.5544-2.4888zm-1.7433 2.4896 3.5546 2.4888-8.24284 11.77277-3.5546-2.4892zm-9.45244 14.25897c.03976-.4615.30796-1.1988.5736-1.578l.17367-.2478 3.5546 2.4891-.17336.2475c-.26578.3793-.86696.8832-1.28696 1.0787l-3.1404 1.4614z" fill="#000"/></svg>