<svg fill="none" height="24" viewBox="0 0 24 24" width="24" xmlns="http://www.w3.org/2000/svg" xmlns:xlink="http://www.w3.org/1999/xlink"><clipPath id="a"><path d="m0 0h24v24h-24z"/></clipPath><g clip-path="url(#a)"><path d="m.57118 5.14062h22.85802c.3185 0 .5712.25267.5712.57119v12.57659c0 .3185-.2527.5712-.5712.5712h-22.85802c-.31852 0-.57118-.2527-.57118-.5712v-12.57659c0-.31852.25266-.57119.57118-.57119zm4.6572 9.14958v1.7135h-2.5812v-1.7135zm15.91582 0v1.7135h-2.5702v-1.7135zm-4.2068 0v1.7135h-10.07242v-1.7135zm-.8567-3.1524h1.7135v1.7135h-1.7135zm3.35 0h1.7135v1.7135h-1.7135zm-6.7112 0h1.7135v1.7135h-1.7135zm-3.35004 0h1.71354v1.7135h-1.71354zm-3.361 0h1.71352v1.7135h-1.71352zm13.42244-3.14137h1.7135v1.71352h-1.7135zm-3.35 0h1.7135v1.71352h-1.7135zm-3.361 0h1.7135v1.71352h-1.7135zm-3.35004 0h1.71354v1.71352h-1.71354zm-3.361 0h1.71352v1.71352h-1.71352zm-3.361 3.14137h1.72446v1.7135h-1.72446zm0-3.14137h1.72446v1.71352h-1.72446zm20.21004-1.71352h-21.71604v11.43419h21.71604z" fill="#000"/></g></svg>