<svg fill="none" height="30" viewBox="0 0 24 30" width="24" xmlns="http://www.w3.org/2000/svg"><path d="m23.1468 8.17401.0011 18.10479c0 .8591-.3507 1.64-.9161 2.2054s-1.3462.9162-2.2054.9162h-16.05229c-.85906 0-1.64-.3515-2.20501-.9166-.56501-.565-.916561-1.3459-.916561-2.205v-22.55762c0-.85906.351471-1.64.916561-2.20501.56501-.565014 1.34595-.916561 2.20501-.916561h11.60509c.2441 0 .4626.109272.6093.281974l6.7245 6.729867c.1546.15573.2317.35907.2335.5624zm-17.60189 16.20529c-.44186 0-.8001-.3583-.8001-.8001s.35834-.8001.8001-.8001h12.90989c.4418 0 .8001.3584.8001.8001 0 .4419-.3584.8001-.8001.8001zm0-4.8653c-.44186 0-.8001-.3583-.8001-.8001 0-.4419.35834-.8001.8001-.8001h12.90989c.4418 0 .8001.3583.8001.8001 0 .4419-.3584.8001-.8001.8001zm0-4.8653c-.44186 0-.8001-.3584-.8001-.8001 0-.4419.35834-.8001.8001-.8001h12.90989c.4418 0 .8001.3583.8001.8001s-.3584.8001-.8001.8001zm16.00269-5.67442h-3.6896c-.8437 0-1.6131-.34656-2.1718-.90406l-.003-.00302c-.5582-.5601-.9041-1.32885-.9041-2.17176v-3.6952h-10.80502c-.41803 0-.79864.17156-1.07416.4471-.27552.27552-.44709.65613-.44709 1.07416v22.5576c0 .418.17156.7986.44709 1.0742.27552.2755.65613.4471 1.07416.4471h16.05222c.4181 0 .799-.1713 1.0745-.4468s.4468-.6565.4468-1.0745zm-5.168-5.64507v2.56635c0 .40824.1659.77824.4317 1.04394l.003.00302c.2657.26573.6357.43168 1.0439.43168h2.5629l-4.0413-4.0448z" fill="#7200a6"/></svg>