<svg fill="none" height="32" viewBox="0 0 33 32" width="33" xmlns="http://www.w3.org/2000/svg"><g stroke="#101820" stroke-width="1.5"><path d="m16.4998 17.9059c.5463 0 1.0873-.1076 1.592-.3166.5047-.2091.9633-.5155 1.3496-.9018s.6927-.8449.9018-1.3496c.209-.5047.3166-1.0457.3166-1.592s-.1076-1.0872-.3166-1.5919c-.2091-.5047-.5155-.9633-.9018-1.3496s-.8449-.6927-1.3496-.9018c-.5047-.20906-1.0457-.31666-1.592-.31666-1.1033 0-2.1614.43826-2.9415 1.21846-.7802.7801-1.2185 1.8382-1.2185 2.9415s.4383 2.1615 1.2185 2.9416c.7801.7802 1.8382 1.2184 2.9415 1.2184z"/><path d="m5.3266 11.3194c2.62667-11.546715 19.7333-11.533381 22.3467.0133 1.5333 6.7733-2.68 12.5067-6.3734 16.0533-1.2905 1.2447-3.0136 1.9403-4.8066 1.9403s-3.5161-.6956-4.8067-1.9403c-3.68-3.5466-7.89333-9.2933-6.36-16.0666z"/></g></svg>