<svg fill="none" height="26" viewBox="0 0 25 26" width="25" xmlns="http://www.w3.org/2000/svg"><g fill="#000"><path d="m19.7498.75h-14.50004c-2.76134 0-5.000004 2.23853-5.000004 5v10.2501c0 .2762.223853.5.5.5.276144 0 .500004-.2238.500004-.5v-10.2501c0-2.20917 1.79082-4 4-4h14.50004c2.2091 0 4 1.79083 4 4v1.5c0 .27613.2238.5.5.5.2761 0 .5-.22385.5-.5v-1.5c0-2.76133-2.2386-5-5-5z"/><path d="m24.2493 9.5c-.2762 0-.5.22385-.5.5v10.2501c0 2.2092-1.7909 4-4 4h-14.50003c-2.20918 0-4-1.7908-4-4v-1.5c0-.2761-.22386-.5-.500002-.5-.276147 0-.5.2239-.5.5v1.5c0 2.7614 2.238532 5 5.000002 5h14.50003c2.7613 0 5-2.2385 5-5v-10.2501c0-.27613-.2239-.5-.5-.5z"/><path d="m9.84595 18.1437c.25725 0 .51505-.0679.74995-.2032l6.3078-3.6416c.4697-.2714.75-.7572.75-1.2992s-.2803-1.0278-.75-1.2993l-6.3078-3.64162c-.5092-.29344-1.12547-.26802-1.60734.06834-.40824.28322-.64261.73197-.64261 1.23093v7.28325c0 .5425.28032 1.0278.74946 1.2988.2349.1355.49272.2034.75054.2034zm-.5-8.78563c0-.22802.13333-.35448.21333-.40968.08792-.06156.18656-.09229.28613-.09229.085 0 .17099.02292.25049.06885l6.3078 3.64165c.226.1304.25.3461.25.4331 0 .0868-.024.3027-.25.4331l-6.3078 3.6416c-.22455.1304-.42527.0434-.49997 0-.0752-.0434-.25-.1724-.25-.4331z"/></g></svg>