<svg fill="none" height="243" viewBox="0 0 666 243" width="666" xmlns="http://www.w3.org/2000/svg" xmlns:xlink="http://www.w3.org/1999/xlink"><linearGradient id="a"><stop offset="0" stop-color="#f1001c"/><stop offset=".07" stop-color="#e60028"/><stop offset=".38" stop-color="#b90060"/><stop offset=".66" stop-color="#970088"/><stop offset=".87" stop-color="#8300a1"/><stop offset="1" stop-color="#7c00ab"/></linearGradient><linearGradient id="b" gradientUnits="userSpaceOnUse" x1="6.34039" x2="677.926" xlink:href="#a" y1="187.327" y2="187.327"/><linearGradient id="c" gradientUnits="userSpaceOnUse" x1="0" x2="665.554" xlink:href="#a" y1="148.041" y2="148.041"/><linearGradient id="d" gradientUnits="userSpaceOnUse" x1="6.43468" x2="665.408" xlink:href="#a" y1="122.804" y2="120.526"/><linearGradient id="e" gradientUnits="userSpaceOnUse" x1=".68627" x2="653.397" y1="148.045" y2="148.045"><stop offset="0" stop-color="#f1001c"/><stop offset=".08" stop-color="#e60028"/><stop offset=".52" stop-color="#ad006e"/><stop offset=".84" stop-color="#89009a"/><stop offset="1" stop-color="#7c00ab"/></linearGradient><linearGradient id="f" gradientUnits="userSpaceOnUse" x1="11.6382" x2="687.149" y1="148.389" y2="148.389"><stop offset="0" stop-color="#f1001c"/><stop offset=".11" stop-color="#e1002e"/><stop offset=".54" stop-color="#ab0071"/><stop offset=".84" stop-color="#89009b"/><stop offset="1" stop-color="#7c00ab"/></linearGradient><clipPath id="g"><path d="m0 0h665.674v243h-665.674z"/></clipPath><g clip-path="url(#g)"><path d="m102.363 132.336h-15.8505v109.982h15.8505z" fill="url(#b)"/><path d="m57.7321 61.1854c-11.3765 4.9418-21.3718 11.7197-29.99 20.3379-8.6139 8.6182-15.3961 18.6137-20.33362 29.9857-4.94613 11.377-7.40848 23.611-7.40848 36.708v94.092h15.8508v-94.092c0-10.798 2.0677-20.964 6.2031-30.501 4.1353-9.536 9.7635-17.8667 16.8889-24.992 7.1211-7.1168 15.4476-12.7536 24.9924-16.889 9.5276-4.1353 19.6987-6.2073 30.5004-6.2073 10.8014 0 20.9644 2.0677 30.5004 6.2073 9.532 4.1354 17.807 9.7722 24.817 16.889 7.009 7.1253 12.582 15.456 16.717 24.992 4.135 9.537 6.203 19.703 6.203 30.501v94.092h15.859v-94.092c0-13.097-2.475-25.331-7.412-36.708-4.947-11.377-11.664-21.3675-20.162-29.9857-8.507-8.6182-18.502-15.3918-29.986-20.3379-11.493-4.9376-23.671-7.4128-36.5321-7.4128-12.8608 0-25.3355 2.4752-36.7078 7.4128z" fill="url(#c)"/><path d="m499.496 220.303c-9.558-4.127-17.906-9.742-25.036-16.846-7.138-7.109-12.779-15.414-16.923-24.933-4.144-9.506-6.216-19.651-6.216-30.432 0-10.78 2.068-20.917 6.216-30.431 4.144-9.511 9.785-17.7644 16.923-24.7568 7.13-6.9881 15.478-12.552 25.036-16.6788 9.549-4.1267 19.733-6.1901 30.556-6.1901s21.007 2.0634 30.556 6.1901c9.554 4.1268 17.841 9.6864 24.864 16.6788 7.022 6.9967 12.603 15.2458 16.747 24.7568 4.144 9.514 6.216 19.664 6.216 30.431 0 10.768-2.072 20.922-6.216 30.432-4.144 9.519-9.725 17.829-16.747 24.933-7.023 7.108-15.31 12.719-24.864 16.846-9.553 4.126-19.741 6.19-30.556 6.19s-21.012-2.064-30.556-6.19zm-63.712-220.303v147.972c0 13.719 2.822 27.344 8.699 39.741.313.665.639 1.326.97 1.986 5.293 10.545 12.136 19.72 20.544 27.511 8.403 7.794 18.068 13.924 29.007 18.394 10.931 4.47 22.62 6.71 35.052 6.71 13.123 0 25.379-2.463 36.772-7.396 11.394-4.925 21.351-11.69 29.87-20.286 8.511-8.597 15.246-18.571 20.201-29.918 4.946-11.346 7.426-23.555 7.426-36.622 0-13.066-2.48-25.275-7.426-36.622-4.955-11.342-11.69-21.2555-20.201-29.7407-8.519-8.4767-18.476-15.1816-29.87-20.1149-11.393-4.929-23.649-7.3913-36.772-7.3913-16.576 0-31.714 3.7793-45.407 11.3465-12.432 6.8637-22.732 15.9023-30.895 27.1072-.768 1.0553-2.428.5277-2.428-.7764v-91.9004h-15.538z" fill="url(#d)"/><path d="m665.674 53.777h-15.714v188.537h15.714z" fill="url(#e)"/><path d="m400.135 111.573c-4.907-11.466-11.629-21.5-20.183-30.1011-8.554-8.601-18.536-15.3617-29.943-20.295-11.411-4.9333-23.607-7.3999-36.609-7.3999-13.003 0-25.207 2.4666-36.614 7.3999-11.406 4.9333-21.384 11.6983-29.938 20.295-8.554 8.6011-15.285 18.6351-20.184 30.1011-4.911 11.476-7.357 23.74-7.357 36.816 0 13.075 2.446 25.344 7.357 36.81 4.904 11.475 11.634 21.505 20.184 30.106 8.554 8.601 18.532 15.366 29.938 20.299 11.407 4.934 23.607 7.396 36.614 7.396s25.198-2.462 36.609-7.396c11.407-4.933 21.389-11.698 29.943-20.299s15.28-18.635 20.183-30.106c4.904-11.466 7.357-23.735 7.357-36.81 0-13.076-2.453-25.34-7.357-36.816zm-14.542 67.436c-4.105 9.631-9.695 18.009-16.76 25.113-7.07 7.112-15.401 12.732-24.98 16.858-9.579 4.127-19.733 6.195-30.453 6.195s-20.87-2.068-30.453-6.195c-9.58-4.131-17.91-9.746-24.98-16.858-7.074-7.109-12.659-15.482-16.764-25.113-4.11-9.631-6.161-19.836-6.161-30.62 0-10.785 2.051-20.986 6.161-30.621 4.105-9.635 9.694-18.0044 16.764-25.1169 7.07-7.1082 15.4-12.7278 24.98-16.8589 9.583-4.1268 19.728-6.1902 30.453-6.1902 10.724 0 20.874 2.0634 30.453 6.1902 9.579 4.1311 17.91 9.7507 24.98 16.8589 7.069 7.1125 12.659 15.4819 16.76 25.1169 4.109 9.631 6.16 19.84 6.16 30.621 0 10.78-2.051 20.985-6.16 30.62z" fill="url(#f)"/></g></svg>