<svg fill="none" height="64" viewBox="0 0 176 64" width="176" xmlns="http://www.w3.org/2000/svg" xmlns:xlink="http://www.w3.org/1999/xlink"><clipPath id="a"><path d="m0 0h175.322v64h-175.322z"/></clipPath><g clip-path="url(#a)" fill="#fff"><path d="m26.9599 34.8535h-4.1747v28.9664h4.1747z"/><path d="m15.2052 16.1144c-2.9963 1.3016-5.62881 3.0867-7.89863 5.3565-2.26869 2.2699-4.05494 4.9023-5.35536 7.8975-1.302691 2.9963-1.95121 6.2186-1.95121 9.6679v24.7816h4.1747v-24.7816c0-2.8438.54457-5.5214 1.63372-8.033s2.57148-4.7058 4.44808-6.5824c1.8755-1.8744 4.0685-3.359 6.5824-4.4481 2.5093-1.0892 5.1881-1.6349 8.033-1.6349s5.5215.5446 8.0331 1.6349c2.5105 1.0891 4.6899 2.5737 6.536 4.4481 1.8461 1.8766 3.3138 4.0708 4.4029 6.5824 1.0892 2.5116 1.6338 5.1892 1.6338 8.033v24.7816h4.1769v-24.7816c0-3.4493-.6519-6.6716-1.9523-9.6679-1.3027-2.9963-3.072-5.6276-5.3102-7.8975-2.2404-2.2698-4.8729-4.0538-7.8975-5.3565-3.0268-1.3004-6.2343-1.9523-9.6215-1.9523s-6.6728.6519-9.6679 1.9523z"/><path d="m131.554 58.0221c-2.517-1.0869-4.716-2.5658-6.593-4.4368-1.88-1.8721-3.366-4.0595-4.457-6.5666-1.092-2.5036-1.638-5.1757-1.638-8.0149 0-2.8393.545-5.509 1.638-8.015 1.091-2.5048 2.577-4.6786 4.457-6.5202 1.877-1.8405 4.076-3.3059 6.593-4.3928 2.515-1.0869 5.198-1.6303 8.048-1.6303 2.851 0 5.533.5434 8.048 1.6303 2.516 1.0869 4.699 2.5512 6.548 4.3928 1.85 1.8427 3.32 4.0154 4.411 6.5202 1.091 2.506 1.637 5.1791 1.637 8.015 0 2.8358-.546 5.5101-1.637 8.0149-1.091 2.5071-2.561 4.6956-4.411 6.5666-1.849 1.8721-4.032 3.3499-6.548 4.4368s-5.2 1.6303-8.048 1.6303-5.534-.5434-8.048-1.6303zm-16.78-58.0221v38.9721c0 3.6132.744 7.2015 2.291 10.4667.083.1751.169.3491.256.5231 1.394 2.7771 3.196 5.1938 5.411 7.2456 2.213 2.0529 4.758 3.6674 7.639 4.8447 2.879 1.1773 5.958 1.767 9.232 1.767 3.456 0 6.684-.6485 9.685-1.9478 3.001-1.297 5.623-3.0788 7.867-5.3429 2.242-2.2642 4.015-4.891 5.32-7.8794 1.303-2.9884 1.956-6.2039 1.956-9.6453 0-3.4415-.653-6.6569-1.956-9.6453-1.305-2.9873-3.078-5.5983-5.32-7.8331-2.244-2.2325-4.866-3.9984-7.867-5.2977-3.001-1.2982-6.229-1.9467-9.685-1.9467-4.365 0-8.353.9953-11.959 2.9884-3.274 1.8077-5.987 4.1882-8.137 7.1393-.202.2779-.639.139-.639-.2045v-24.2042h-4.093z"/><path d="m175.321 14.1631h-4.138v49.6557h4.138z"/><path d="m105.385 29.3852c-1.292-3.02-3.062-5.6627-5.315-7.928-2.2532-2.2653-4.8823-4.0459-7.8865-5.3452-3.0054-1.2993-6.2174-1.9489-9.6419-1.9489s-6.6389.6496-9.6431 1.9489-5.6322 3.0811-7.885 5.3452c-2.2529 2.2653-4.0256 4.908-5.3158 7.928-1.2937 3.0223-1.9377 6.2524-1.9377 9.6961 0 3.4438.644 6.675 1.9377 9.6951 1.2913 3.0222 3.064 5.6638 5.3158 7.9291 2.2528 2.2653 4.8808 4.047 7.885 5.3463s6.2174 1.9478 9.6431 1.9478c3.4256 0 6.6365-.6485 9.6419-1.9478 3.0042-1.2993 5.6333-3.081 7.8865-5.3463 2.253-2.2653 4.024-4.908 5.315-7.9291 1.292-3.0201 1.938-6.2513 1.938-9.6951 0-3.4437-.646-6.6738-1.938-9.6961zm-3.83 17.7608c-1.081 2.5365-2.553 4.743-4.4139 6.614-1.8619 1.8733-4.056 3.3533-6.5789 4.4402s-5.1972 1.6315-8.0206 1.6315c-2.8235 0-5.4966-.5446-8.0207-1.6315-2.5229-1.088-4.717-2.5669-6.5789-4.4402-1.8631-1.8721-3.3341-4.0775-4.4154-6.614-1.0823-2.5364-1.6224-5.2243-1.6224-8.0647 0-2.8403.5401-5.527 1.6224-8.0646 1.0813-2.5376 2.5534-4.7419 4.4154-6.6152 1.8619-1.8721 4.056-3.3521 6.5789-4.4402 2.5241-1.0868 5.1961-1.6303 8.0207-1.6303 2.8245 0 5.4977.5435 8.0206 1.6303 2.5229 1.0881 4.717 2.5681 6.5789 4.4402 1.862 1.8733 3.3339 4.0776 4.4139 6.6152 1.083 2.5364 1.623 5.2254 1.623 8.0646 0 2.8393-.54 5.5271-1.623 8.0647z"/></g></svg>