<svg width="33" height="33" viewBox="0 0 33 33" fill="none" xmlns="http://www.w3.org/2000/svg">
<g opacity="0.5" clip-path="url(#clip0_3105_2591)">
<path d="M2.41965 19.8991C2.44273 21.8873 3.94689 23.513 5.86317 23.7276C6.02257 23.7454 6.18469 23.7534 6.34899 23.7513C8.49081 23.7219 10.213 21.9459 10.1882 19.7925C10.1705 18.2572 9.26917 16.9383 7.97707 16.3183L7.22827 18.0545C7.79411 18.3749 8.1796 18.9811 8.18749 19.6817C8.1996 20.7286 7.36533 21.5889 6.32406 21.6033C5.28278 21.6176 4.42903 20.7804 4.41669 19.7336C4.40457 18.6867 5.23884 17.8264 6.28012 17.8121C6.30678 17.8117 6.33305 17.8123 6.35933 17.8128L7.12929 16.0273C6.84869 15.9667 6.55719 15.9365 6.25822 15.9404C4.11701 15.9697 2.39477 17.7457 2.41965 19.8991ZM21.264 18.361C21.3722 18.0637 21.5087 17.7799 21.6701 17.5129L20.3889 16.3084L19.6355 16.9032L19.9357 18.0496L21.264 18.361ZM24.1132 19.0288C24.4206 18.4172 25.0467 17.9939 25.7743 17.9838C26.8156 17.9695 27.6695 18.8065 27.6816 19.8534C27.6935 20.9005 26.8593 21.7608 25.8182 21.775C24.7938 21.7892 23.9511 20.9789 23.9129 19.9556L21.9493 19.4953C21.9237 19.6836 21.9113 19.8758 21.9137 20.0712C21.9386 22.2246 23.7013 23.9528 25.8433 23.9232C26.176 23.9186 26.4989 23.8721 26.8065 23.7881C28.4785 23.3329 29.7036 21.7833 29.6827 19.9643C29.6577 17.8107 27.895 16.0829 25.7531 16.1123C24.1356 16.1344 22.7576 17.1529 22.1903 18.5776L24.1132 19.0288ZM24.6851 12.9157L21.1399 15.7151L22.2397 16.749C23.1101 15.7922 24.3552 15.1838 25.742 15.1648C28.4036 15.1285 30.5943 17.2759 30.6254 19.952C30.6561 22.6281 28.5161 24.8351 25.8543 24.8715C23.1926 24.9082 21.0019 22.7608 20.9709 20.0843C20.9678 19.8103 20.9876 19.5417 21.0283 19.2795L19.4577 18.9113L18.4025 20.34L10.6008 16.7575L9.329 13.1846L8.35291 15.4474C9.97505 16.2118 11.109 17.8595 11.1311 19.7797C11.162 22.4559 9.02167 24.6629 6.35998 24.6996C3.69829 24.7363 1.50746 22.5886 1.4766 19.9123C1.44552 17.2362 3.58585 15.0293 6.24769 14.9928C6.684 14.9867 7.10734 15.0397 7.51075 15.1439L10.5466 8.10485L12.7751 8.5297C13.0175 8.57578 13.176 8.811 13.1297 9.05439C13.0834 9.29816 12.8493 9.45825 12.6069 9.41216L11.0813 9.12124L10.2098 11.1419L12.6711 10.792L17.9966 12.6233L21.8905 11.8202L23.629 11.1653" fill="white"/>
</g>
<defs>
<clipPath id="clip0_3105_2591">
<rect width="32" height="32" fill="white" transform="matrix(-1 0 0 1 32.5 0.664062)"/>
</clipPath>
</defs>
</svg>
