<svg width="40" height="24" viewBox="0 0 40 24" fill="none" xmlns="http://www.w3.org/2000/svg">
<path d="M39.9961 17.4676C39.9673 16.6937 39.7987 15.9459 39.4889 15.2366C38.8041 13.6707 37.6832 12.5713 36.1326 11.9491C35.7611 11.8 35.3643 11.7133 34.9749 11.6175C34.8202 11.5796 34.7422 11.537 34.7516 11.3505C34.7665 11.047 34.7447 11.0424 34.4622 11.0122C33.6635 10.9266 32.8813 11.0086 32.1115 11.2413C31.8206 11.3289 31.8225 11.3233 31.7042 11.0312C31.5217 10.5806 31.3267 10.1357 31.1517 9.68215C31.0716 9.47457 31.0279 9.25366 30.8767 9.07837C30.8538 9.05223 30.8807 8.94973 30.9145 8.90821C31.0323 8.7647 31.0199 8.63041 30.9349 8.47614C30.8528 8.32699 30.7961 8.16298 30.7161 8.01229C30.6748 7.93438 30.6062 7.87185 30.545 7.79651C30.5987 7.48642 30.6544 7.16352 30.7146 6.81858C30.9016 6.79654 31.1 6.76938 31.2994 6.75298C31.3367 6.7499 31.3799 6.78629 31.4163 6.8114C31.561 6.91135 31.6778 6.83447 31.7828 6.70018C31.93 6.51157 31.8598 6.33884 31.8186 6.16304C31.6465 5.42857 31.458 4.69768 31.2874 3.9627C31.2442 3.77562 31.0895 3.70489 30.9682 3.66081C30.8125 3.60443 30.7424 3.76537 30.722 3.9053C30.1854 3.95142 29.9139 4.35992 29.632 4.73869C29.5091 4.90373 29.435 5.10721 29.3376 5.29531C29.1739 5.17332 29.0481 4.85811 29.1133 4.69563C29.2431 4.37171 29.2187 4.04266 29.1779 3.71002C29.17 3.64339 29.163 3.57676 29.1526 3.51013C29.0969 3.14981 29.1317 2.81358 29.3351 2.49632C29.4803 2.26927 29.5996 2.02222 29.706 1.77313C29.7399 1.69368 29.715 1.5717 29.6827 1.48251C29.6523 1.39846 29.5713 1.33541 29.5215 1.257C29.3977 1.06172 29.2172 0.919231 29.165 0.65681C29.1153 0.406178 28.9546 0.362612 28.7333 0.496898C28.4325 0.679362 28.15 0.894117 27.8571 1.09145C27.7711 1.14936 27.6761 1.19344 27.5866 1.24572C27.4682 1.3144 27.3762 1.26007 27.3255 1.1591C27.2902 1.08991 27.2832 0.993037 27.2957 0.913593C27.3165 0.77572 27.3747 0.643997 27.3941 0.506123C27.4225 0.302132 27.2817 0.286243 27.1355 0.302132C27.1375 0.0207467 27.1231 0.042786 26.864 0.00844576C26.3727 -0.056647 26.0653 0.267792 25.7242 0.5256C25.6103 0.611707 25.6849 0.719853 25.7431 0.809548C25.8878 1.03097 25.8793 1.05967 25.6461 1.17755C25.5715 1.21548 25.5074 1.27442 25.4338 1.31389C25.3597 1.35387 25.2761 1.37591 25.2025 1.41691C25.0757 1.48764 24.9206 1.54043 24.8375 1.6496C24.7087 1.81925 24.8579 2.08988 25.0717 2.11602C25.1424 2.12473 25.215 2.11755 25.2866 2.11755C25.4691 2.11755 25.5168 2.18367 25.4651 2.36665C25.3537 2.76284 25.5422 2.9653 25.9385 2.88636C25.9843 2.87714 26.0584 2.91865 26.0907 2.96068C26.1648 3.05602 26.2309 3.0555 26.3219 2.99092C26.4343 2.91097 26.5562 2.84536 26.6686 2.7654C26.7745 2.69006 26.8729 2.60447 26.9908 2.51067C27.0923 2.71928 27.1927 2.92583 27.3006 3.14776C27.2141 3.18261 27.138 3.21285 27.0376 3.25283C27.1569 3.60136 27.2768 3.94579 27.3911 4.29175C27.4294 4.4081 27.506 4.52137 27.3941 4.65361C27.3618 4.69153 27.3941 4.80891 27.424 4.87656C27.5289 5.11284 27.6457 5.34297 27.7676 5.59463C27.6487 5.63666 27.5473 5.67254 27.4384 5.71098C27.418 5.65921 27.3951 5.62436 27.3911 5.58746C27.3588 5.28813 27.1634 5.19075 26.9068 5.14257C26.215 5.0129 25.5273 4.86221 24.834 4.74176C24.6411 4.70845 24.4287 4.71972 24.2373 4.76483C23.5276 4.93243 22.818 5.10413 22.1178 5.30966C21.428 5.51211 20.7527 5.7648 20.0664 5.98109C19.2469 6.23941 18.4229 6.48082 17.6013 6.73247C17.4338 6.78373 17.2692 6.84575 17.1041 6.90571C17.0618 6.92109 17.0051 6.93698 16.9867 6.97081C16.8489 7.224 16.7137 7.14251 16.56 6.98618C16.5138 6.93903 16.4337 6.91648 16.3656 6.9052C15.7967 6.81089 15.2268 6.72171 14.6574 6.63048C14.1183 6.54437 13.5812 6.43827 13.0396 6.37523C11.9839 6.25222 11.0171 5.81195 10.0111 5.5116C9.87286 5.47008 9.71373 5.42857 9.58194 5.46137C9.46955 5.48956 9.3497 5.60693 9.29252 5.71764C9.20599 5.88473 9.17764 6.08257 9.111 6.26196C9.09111 6.31629 9.03293 6.37574 8.98021 6.39266C8.85788 6.43161 8.81461 6.49312 8.80417 6.63202C8.77632 7.0031 8.86534 7.26295 9.18759 7.5059C10.4905 8.48895 11.7646 9.51198 13.0491 10.5207C13.2406 10.6708 13.436 10.8174 13.6205 10.9763C13.6971 11.0424 13.7503 11.1383 13.8139 11.2203C13.7985 11.2392 13.7836 11.2577 13.7682 11.2767C13.6961 11.2398 13.627 11.1885 13.5504 11.1711C13.4962 11.1588 13.432 11.1916 13.3723 11.2044C13.3883 11.2628 13.3967 11.3254 13.4226 11.3787C13.4509 11.4361 13.4962 11.4853 13.534 11.5381C13.523 11.5504 13.5121 11.5621 13.5011 11.5745C13.4574 11.555 13.4146 11.5247 13.3694 11.5181C13.2972 11.5073 13.2227 11.5124 13.1491 11.5109C13.1645 11.575 13.1834 11.639 13.1938 11.7041C13.2033 11.7636 13.2038 11.8241 13.2112 11.9312C13.1108 11.8681 13.0635 11.8384 13.0093 11.8041C12.9675 11.8558 12.9312 11.9009 12.89 11.9517C12.9283 12.0127 12.9631 12.068 13.0038 12.1331C12.8934 12.2346 12.7835 12.3361 12.6687 12.4422C12.7159 12.5165 12.7467 12.5647 12.799 12.6467C12.6985 12.7179 12.5901 12.7825 12.4971 12.8655C12.4235 12.9311 12.3683 13.0188 12.3056 13.0972C12.2673 13.1449 12.2345 13.2284 12.1918 13.2341C12.1316 13.2423 12.0381 13.213 12.0043 13.1654C11.3324 12.2218 10.4721 11.5017 9.4795 10.9553C8.74748 10.5524 7.96623 10.2726 7.12629 10.2229C6.70657 10.1983 6.28487 10.1732 5.86515 10.1839C5.54986 10.1921 5.23656 10.2567 4.89641 10.2992C4.91631 10.4602 4.93371 10.6016 4.95211 10.7487C4.66865 10.8513 4.38271 10.9507 4.10024 11.0583C3.19268 11.4043 2.42037 11.9619 1.75897 12.6826C0.848419 13.6738 0.285976 14.8511 0.079598 16.1965C-0.100423 17.3708 0.0258899 18.5153 0.448592 19.6306C1.01103 21.1154 1.96982 22.2348 3.30059 23.0272C3.76307 23.3024 4.25142 23.5254 4.77159 23.6499C5.21767 23.757 5.66225 23.8795 6.13419 23.8493C6.67077 23.815 7.21431 23.8888 7.74543 23.7529C8.3198 23.6058 8.8728 23.4039 9.4054 23.1292C10.3532 22.6402 11.1032 21.9278 11.7188 21.0513C12.2246 20.3312 12.5632 19.5219 12.7482 18.6675C12.8681 18.1145 12.8372 17.524 12.8522 16.95C12.8706 16.2452 12.7801 16.3483 13.4564 16.173C13.9661 16.0407 14.4719 15.8885 14.9766 15.7363C15.2193 15.663 15.4207 15.6937 15.5923 15.9003C15.7991 16.1494 15.9991 16.4098 16.2338 16.6286C16.5351 16.9095 16.8385 17.2196 17.1966 17.3959C17.581 17.585 18.037 17.5379 18.4259 17.3354C18.6775 17.2042 19.415 16.7808 19.415 16.7808L19.8785 16.5389C19.8785 16.5389 20.3265 16.2929 20.4195 16.2396C21.5499 15.5923 22.6847 14.9531 23.8225 14.3196C24.6247 13.8732 25.4313 13.435 26.2384 12.9993C26.6114 12.7979 26.8779 12.5104 27.0211 12.0962C27.315 11.2454 27.6204 10.3992 27.9158 9.54889C27.968 9.39923 27.974 9.23009 28.0386 9.0876C28.0883 8.97843 28.1833 8.8749 28.2833 8.81032C28.4245 8.7196 28.5896 8.66937 28.7433 8.59864C28.9079 8.52278 29.0183 8.56737 29.0427 8.74932C29.0715 8.96562 29.1834 9.0466 29.3798 9.1245C29.7364 9.26648 30.0472 9.47252 30.1909 9.89793C30.3754 10.4448 30.6171 10.9717 30.8468 11.5012C30.9199 11.6693 30.8757 11.7713 30.7369 11.8502C29.6911 12.4437 28.8761 13.2858 28.2674 14.3355C27.8999 14.9695 27.6467 15.6584 27.4906 16.3811C27.4583 16.5302 27.4344 16.6829 27.422 16.8352C27.409 16.9987 27.5169 17.0561 27.6547 17.0694C27.9526 17.0981 27.9531 17.0971 27.9531 17.4097C27.9531 17.5778 27.961 17.746 27.9516 17.9136C27.8959 18.892 28.1614 19.7869 28.5931 20.6454C28.9815 21.4183 29.4753 22.1041 30.1476 22.6305C30.8185 23.1553 31.5615 23.5551 32.3775 23.7888C32.6252 23.8595 32.8858 23.8862 33.1419 23.9221C33.385 23.9564 33.6302 24.001 33.8744 24C35.0057 23.9964 36.0575 23.7083 37.0442 23.1169C37.711 22.7171 38.2605 22.1974 38.7355 21.5905C39.1313 21.0841 39.4342 20.5065 39.6356 19.892C39.7773 19.4599 39.9349 19.0237 39.929 18.5465C39.9245 18.1878 40.012 17.8269 39.9986 17.4697L39.9961 17.4676ZM6.42759 21.9872C3.87347 21.9872 1.80273 19.853 1.80273 17.2206C1.80273 14.5882 3.87347 12.454 6.42759 12.454C8.37053 12.454 10.033 13.6887 10.7183 15.4385L8.62664 16.1017C8.21637 15.2673 7.37743 14.6953 6.4077 14.6953C5.03466 14.6953 3.92122 15.8429 3.92122 17.258C3.92122 18.6731 5.03466 19.8207 6.4077 19.8207C7.78073 19.8207 8.86584 18.7013 8.89269 17.3103L11.0181 16.6368C11.041 16.8285 11.0529 17.0233 11.0529 17.2211C11.0529 19.8535 8.98171 21.9872 6.42759 21.9872ZM33.945 22.612C31.3909 22.612 29.3201 20.4778 29.3201 17.8454C29.3201 16.0069 30.3302 14.4119 31.8096 13.6164L32.6336 15.4882C31.9285 15.9403 31.459 16.746 31.459 17.665C31.459 19.0801 32.5725 20.2277 33.9455 20.2277C35.3185 20.2277 36.432 19.0801 36.432 17.665C36.432 16.2499 35.3185 15.1023 33.9455 15.1023C33.8301 15.1023 33.7172 15.111 33.6063 15.1269L32.7724 13.233C33.1468 13.1321 33.5402 13.0782 33.9455 13.0782C36.4996 13.0782 38.5704 15.2125 38.5704 17.8449C38.5704 20.4773 36.4991 22.612 33.945 22.612Z" fill="#7200A6"/>
</svg>
