<svg fill="none" height="227" viewBox="0 0 343 227" width="343" xmlns="http://www.w3.org/2000/svg"><path d="m271.305 143.294c-.154-4.076-1.083-8.022-2.759-11.763-3.714-8.254-9.8-14.033-18.233-17.309-2.012-.773-4.178-1.238-6.293-1.754-.851-.206-1.264-.412-1.212-1.393.077-1.599-.052-1.625-1.573-1.78-4.333-.464-8.588 0-12.766 1.213-1.573.464-1.573.438-2.218-1.109-.98-2.374-2.037-4.721-2.992-7.12-.438-1.083-.67-2.244-1.495-3.1727-.129-.129 0-.6707.206-.9029.645-.748.567-1.4703.103-2.27-.438-.7738-.748-1.6509-1.186-2.4505-.232-.4128-.593-.7481-.929-1.135.284-1.6252.594-3.3277.929-5.1591 1.006-.1032 2.089-.258 3.172-.3354.206 0 .438.1806.645.3096.773.5159 1.418.129 1.985-.5933.8-.9802.413-1.9089.207-2.8375-.929-3.8693-1.96-7.7129-2.889-11.5822-.232-.9802-1.083-1.3671-1.728-1.5993-.851-.3095-1.237.5417-1.341 1.2898-2.914.2321-4.384 2.399-5.905 4.3852-.671.877-1.084 1.9347-1.599 2.9407-.877-.6449-1.573-2.2958-1.212-3.1729.696-1.7025.567-3.4307.361-5.1848-.052-.3612-.078-.6965-.129-1.0577-.31-1.9088-.103-3.6629.98-5.3396.799-1.1866 1.444-2.5022 2.011-3.8177.181-.4128.052-1.0577-.129-1.522-.154-.4385-.593-.7738-.877-1.1866-.67-1.0318-1.65-1.7799-1.934-3.1728-.283-1.3156-1.134-1.5477-2.347-.8513-1.624.9545-3.172 2.0895-4.745 3.1213-.464.3095-.98.5417-1.47.7997-.645.3611-1.135.0773-1.418-.4644-.181-.3611-.232-.877-.155-1.2897.103-.7223.438-1.4188.542-2.1411.154-1.0834-.619-1.1608-1.393-1.0834 0-1.4703-.077-1.3671-1.47-1.5477-2.656-.3353-4.333 1.3672-6.19 2.7343-.618.4643-.206 1.0318.104 1.4962.773 1.1608.748 1.3155-.516 1.9346-.413.2064-.748.5159-1.161.7223-.412.2064-.851.3353-1.263.5417-.697.3611-1.522.6449-1.986 1.2382-.696.9028.103 2.3216 1.264 2.4505.386.0516.773 0 1.16 0 .98 0 1.238.3354.98 1.3156-.593 2.0894.413 3.1471 2.579 2.7343.258-.0516.645.1806.825.387.413.4901.774.4901 1.264.1547.619-.4127 1.264-.7738 1.883-1.1866.567-.3869 1.109-.8512 1.753-1.3413.542 1.1092 1.083 2.1926 1.677 3.3534-.465.1806-.877.3353-1.419.5417.645 1.8315 1.29 3.663 1.909 5.4686.206.6191.619 1.2124 0 1.9089-.181.2064 0 .8254.154 1.1866.568 1.2382 1.212 2.4506 1.857 3.7919-.645.2322-1.186.4127-1.779.6191-.103-.2837-.232-.4643-.258-.6449-.181-1.5735-1.238-2.0894-2.631-2.3474-3.765-.6964-7.479-1.4703-11.244-2.1152-1.057-.1806-2.192-.129-3.249.129-3.843.877-7.711 1.7799-11.503 2.8633-3.739 1.0576-7.401 2.399-11.141 3.534-4.435 1.3671-8.923 2.6311-13.384 3.9467-.903.2579-1.806.5933-2.708.9028-.232.0774-.542.1548-.645.3353-.748 1.3414-1.496.9029-2.321.0774-.258-.2579-.696-.3611-1.057-.4127-3.095-.4901-6.19-.9802-9.285-1.4445-2.914-.4644-5.854-1.0061-8.794-1.3414-5.725-.6449-10.986-2.9665-16.453-4.54-.748-.2064-1.625-.4385-2.322-.258-.618.1548-1.263.7739-1.573 1.3414-.464.8771-.619 1.9347-.98 2.8633-.103.2837-.412.5933-.722.6965-.67.2063-.902.5417-.954 1.264-.155 1.9604.335 3.3276 2.089 4.6173 7.066 5.1849 13.978 10.5757 20.967 15.8897 1.031.8 2.089 1.574 3.095 2.399.412.361.696.852 1.057 1.29-.077.103-.155.206-.258.284-.387-.207-.774-.464-1.186-.568-.284-.077-.645.104-.955.181.078.309.129.645.284.929.155.309.387.567.593.851-.051.051-.129.129-.18.18-.232-.103-.464-.258-.722-.309-.387-.052-.8-.026-1.187-.026.078.335.181.671.232 1.006.052.31.052.645.104 1.187-.542-.336-.8-.49-1.109-.671-.232.284-.413.516-.645.774.206.309.387.619.619.954-.593.542-1.186 1.084-1.831 1.625.258.387.412.645.696 1.084-.541.387-1.135.722-1.65 1.161-.413.335-.697.799-1.032 1.212-.206.258-.387.696-.619.722-.335.052-.825-.103-1.006-.361-3.636-4.978-8.33-8.77-13.694-11.634-3.971-2.115-8.2267-3.585-12.7657-3.869-2.2694-.129-4.5647-.258-6.86-.206-1.7021.051-3.4042.387-5.261.619.1031.851.2063 1.599.3094 2.373-1.5473.542-3.0947 1.058-4.6163 1.625-4.9258 1.832-9.1294 4.772-12.7142 8.564-4.9516 5.237-7.9947 11.428-9.1037 18.521-.98 6.191-.2837 12.227 2.0116 18.083 3.0432 7.816 8.2526 13.723 15.4737 17.902 2.5016 1.444 5.1579 2.631 7.9947 3.276 2.4242.567 4.8227 1.212 7.4016 1.058 2.9142-.181 5.8542.206 8.7426-.516 3.1206-.774 6.1123-1.832 9.0003-3.276 5.132-2.58 9.207-6.32 12.56-10.938 2.733-3.792 4.59-8.048 5.596-12.562.645-2.915.49-6.036.567-9.054.104-3.715-.386-3.173 3.276-4.102 2.759-.696 5.519-1.496 8.252-2.296 1.316-.386 2.399-.232 3.353.878 1.135 1.315 2.218 2.682 3.482 3.843 1.624 1.47 3.275 3.121 5.235 4.05 2.089 1.006 4.565.748 6.679-.31 1.367-.696 5.364-2.914 5.364-2.914l2.528-1.264s2.424-1.29 2.94-1.574c6.138-3.405 12.301-6.784 18.465-10.112 4.359-2.347 8.743-4.669 13.127-6.965 2.037-1.057 3.482-2.579 4.255-4.746 1.599-4.488 3.25-8.951 4.849-13.414.283-.799.309-1.6763.67-2.4243.258-.5675.774-1.1092 1.315-1.4704.774-.4901 1.677-.748 2.502-1.1092.903-.3869 1.496-.1548 1.625.7997.154 1.135.773 1.5735 1.831 1.9862 1.934.748 3.61 1.832 4.41 4.076 1.006 2.889 2.321 5.649 3.559 8.435.387.877.154 1.419-.593 1.831-5.674 3.122-10.11 7.558-13.411 13.104-1.986 3.328-3.378 6.965-4.229 10.783-.181.774-.31 1.599-.361 2.399-.078.851.515 1.161 1.263 1.238 1.625.155 1.625.155 1.625 1.78 0 .877.052 1.78 0 2.657-.31 5.159 1.135 9.88 3.482 14.394 2.114 4.075 4.796 7.687 8.433 10.447 3.636 2.76 7.685 4.875 12.095 6.113 1.341.362 2.759.516 4.152.697 1.315.18 2.656.413 3.972.413 6.138 0 11.863-1.548 17.201-4.644 3.611-2.115 6.602-4.849 9.181-8.048 2.141-2.657 3.791-5.701 4.874-8.951.774-2.27 1.625-4.566 1.599-7.094 0-1.883.439-3.791.387-5.675zm-182.2539 23.809c-13.8748 0-25.119-11.247-25.119-25.125s11.2442-25.124 25.119-25.124c10.5478 0 19.5739 6.5 23.2879 15.735l-11.347 3.482c-2.2183-4.385-6.783-7.403-12.0441-7.403-7.4532 0-13.4879 6.036-13.4879 13.491s6.0347 13.491 13.4879 13.491 13.3331-5.907 13.4881-13.233l11.528-3.56c.129 1.006.18 2.038.18 3.07 0 13.878-11.244 25.124-25.1187 25.124zm149.3979 3.302c-13.874 0-25.118-11.247-25.118-25.125 0-9.699 5.493-18.082 13.513-22.287l4.488 9.854c-3.817 2.373-6.37 6.629-6.37 11.479 0 7.455 6.034 13.491 13.487 13.491 7.454 0 13.488-6.036 13.488-13.491s-6.034-13.491-13.488-13.491c-.618 0-1.237.051-1.831.129l-4.539-9.983c2.038-.542 4.178-.826 6.37-.826 13.875 0 25.119 11.247 25.119 25.125s-11.244 25.125-25.119 25.125z" fill="#7200a6"/></svg>