<svg width="33" height="33" viewBox="0 0 33 33" fill="none" xmlns="http://www.w3.org/2000/svg">
<g opacity="0.5">
<path d="M29.5126 11.8675H26.5908V26.757C26.5906 26.9268 26.523 27.0896 26.403 27.2096C26.2829 27.3297 26.1202 27.3972 25.9504 27.3975H20.6584C22.096 26.2493 23.2069 24.7438 23.8801 23.0315C24.5532 21.3193 24.765 19.4603 24.4943 17.6405C24.2236 15.8207 23.4798 14.1038 22.3374 12.6617C21.195 11.2195 19.6939 10.1026 17.9844 9.42255L22.3788 4.85987C22.4381 4.79871 22.509 4.74992 22.5873 4.71632C22.6656 4.68271 22.7498 4.66497 22.835 4.6641C22.9202 4.66323 23.0047 4.67925 23.0837 4.71125C23.1626 4.74325 23.2345 4.79058 23.295 4.85052L29.737 11.3206C29.7824 11.365 29.8134 11.4219 29.8262 11.4841C29.839 11.5463 29.833 11.6108 29.8089 11.6695C29.7848 11.7283 29.7437 11.7785 29.691 11.8137C29.6382 11.849 29.5761 11.8677 29.5126 11.8675Z" fill="white"/>
<path d="M14.0931 11.7148C12.6137 11.7148 11.1676 12.1535 9.93754 12.9754C8.70749 13.7973 7.74878 14.9655 7.18265 16.3323C6.61652 17.699 6.4684 19.203 6.75701 20.6539C7.04562 22.1048 7.758 23.4376 8.80407 24.4837C9.85014 25.5298 11.1829 26.2421 12.6339 26.5308C14.0848 26.8194 15.5887 26.6712 16.9555 26.1051C18.3223 25.539 19.4904 24.5803 20.3123 23.3502C21.1342 22.1202 21.5729 20.674 21.5729 19.1947C21.5706 17.2116 20.7819 15.3104 19.3796 13.9081C17.9774 12.5059 16.0762 11.7171 14.0931 11.7148ZM14.5606 23.7669V24.6607C14.5606 24.7847 14.5113 24.9036 14.4237 24.9913C14.336 25.0789 14.2171 25.1282 14.0931 25.1282C13.9691 25.1282 13.8502 25.0789 13.7625 24.9913C13.6749 24.9036 13.6256 24.7847 13.6256 24.6607V23.7678C13.1841 23.7223 12.758 23.5803 12.3775 23.3518C11.997 23.1233 11.6714 22.814 11.4237 22.4456C11.3912 22.3936 11.3693 22.3356 11.3592 22.2751C11.3491 22.2145 11.3511 22.1526 11.3649 22.0928C11.3787 22.033 11.4042 21.9765 11.4399 21.9266C11.4756 21.8766 11.5207 21.8342 11.5728 21.8017C11.6249 21.7692 11.6828 21.7473 11.7434 21.7372C11.8039 21.7271 11.8658 21.729 11.9256 21.7429C11.9854 21.7567 12.0419 21.7822 12.0919 21.8179C12.1418 21.8535 12.1842 21.8987 12.2167 21.9508C12.4302 22.2457 12.7131 22.4835 13.0404 22.6431C13.3676 22.8027 13.7292 22.8791 14.0931 22.8656C15.2397 22.8656 16.1724 22.1471 16.1724 21.2641C16.1468 20.9517 16.0313 20.6533 15.8398 20.4051C15.6483 20.1569 15.3891 19.9694 15.0933 19.8653C14.7478 19.7321 14.3826 19.6567 14.0125 19.6421C13.5166 19.621 13.0289 19.5085 12.574 19.3101C12.1435 19.125 11.7744 18.8214 11.5098 18.4346C11.2451 18.0479 11.0958 17.594 11.0791 17.1256C11.0791 15.861 12.1854 14.8129 13.6256 14.6229V13.7286C13.6256 13.6046 13.6748 13.4857 13.7625 13.398C13.8502 13.3104 13.9691 13.2611 14.0931 13.2611C14.2171 13.2611 14.336 13.3104 14.4236 13.398C14.5113 13.4857 14.5606 13.6046 14.5606 13.7286V14.6226C14.9927 14.6683 15.41 14.8057 15.7847 15.0256C16.1594 15.2456 16.4828 15.543 16.7332 15.8981C16.8008 16.0018 16.8245 16.128 16.7991 16.2492C16.7737 16.3703 16.7013 16.4765 16.5977 16.5443C16.4942 16.6121 16.3679 16.6361 16.2467 16.611C16.1255 16.5859 16.0192 16.5137 15.9512 16.4103C15.7369 16.1226 15.4557 15.8915 15.1319 15.737C14.8081 15.5826 14.4515 15.5096 14.0931 15.5242C12.9467 15.5242 12.014 16.2427 12.014 17.1257C12.0336 17.4191 12.1354 17.7011 12.3079 17.9393C12.4804 18.1776 12.7165 18.3623 12.9892 18.4724C13.3448 18.617 13.7231 18.698 14.1068 18.7117C14.5828 18.7334 15.0515 18.8377 15.4919 19.0198C15.9488 19.1985 16.3444 19.5053 16.6309 19.9035C16.9175 20.3017 17.083 20.7742 17.1073 21.2641C17.1074 22.5288 16.0008 23.5769 14.5606 23.7669Z" fill="white"/>
<path d="M17.2791 10.1563C16.2555 9.79266 15.1771 9.60764 14.0908 9.60939C11.6887 9.60847 9.37367 10.5094 7.60402 12.1338C5.83438 13.7582 4.73902 15.9878 4.53475 18.3813C4.33047 20.7747 5.03216 23.1577 6.50093 25.0585C7.96971 26.9593 10.0985 28.2395 12.4661 28.6456C14.8337 29.0518 17.2675 28.5544 19.2858 27.2518C21.3042 25.9492 22.76 23.9364 23.3651 21.6117C23.9703 19.287 23.6807 16.8198 22.5536 14.6985C21.4266 12.5771 19.5442 10.9561 17.2791 10.1563ZM14.0925 27.6077C12.4282 27.6077 10.8013 27.1142 9.41749 26.1895C8.03368 25.2649 6.95514 23.9507 6.31824 22.4131C5.68135 20.8755 5.51471 19.1836 5.83939 17.5513C6.16408 15.9189 6.96551 14.4196 8.14234 13.2427C9.31917 12.0659 10.8185 11.2645 12.4509 10.9398C14.0832 10.6151 15.7751 10.7817 17.3127 11.4186C18.8503 12.0555 20.1645 13.1341 21.0891 14.5179C22.0138 15.9017 22.5073 17.5286 22.5073 19.1929C22.5047 21.4239 21.6174 23.5627 20.0398 25.1402C18.4623 26.7178 16.3235 27.6051 14.0925 27.6077Z" fill="white"/>
</g>
</svg>
