<svg fill="none" height="30" viewBox="0 0 22 30" width="22" xmlns="http://www.w3.org/2000/svg"><g fill="#000"><path d="m20.7037 10.3959h-1.9264v-1.89856c0-4.37307-3.5576-7.930934-7.9309-7.930934-3.70746 0-6.96826 2.633224-7.75279 6.261064-.11646.53979.22625 1.07262.76677 1.18947.53853.1174 1.07261-.22594 1.18947-.76635.58688-2.71333 3.02479-4.68293 5.79675-4.68293 3.2696 0 5.9296 2.65979 5.9296 5.9296v1.89854l-15.47969-.0001c-.552612 0-1.000612.448-1.000612 1.0006v17.0344c0 .5526.448027 1.0006 1.000612 1.0006h19.40719c.5526 0 1.0006-.448 1.0006-1.0006l-.0001-17.0344c.0003-.5523-.4479-1.0006-1.0003-1.0006zm-1.0006 17.0346h-17.40616v-15.0333h15.28746c.0624.0122.1264.0195.1923.0195s.1299-.0074.1923-.0195h1.734z"/><path d="m11.0586 14.168c-1.93947 0-3.51734 1.5779-3.51734 3.5173 0 1.5597 1.02115 2.8837 2.42947 3.3435v3.1485c0 .5526.44807 1.0006 1.00057 1.0006.5526 0 1.0007-.448 1.0007-1.0006v-3.0987c1.4976-.4035 2.6044-1.7695 2.6044-3.3928 0-1.9398-1.5779-3.5176-3.5178-3.5176zm0 5.0336c-.8361 0-1.51614-.6804-1.51614-1.5162 0-.8361.68034-1.5161 1.51614-1.5161.8361 0 1.5161.6803 1.5161 1.5161.0003.8362-.68 1.5162-1.5161 1.5162z"/></g></svg>