<?xml version="1.0" encoding="UTF-8" standalone="no"?>
<svg
   fill="none"
   height="30"
   viewBox="0 0 22 30"
   width="22"
   version="1.1"
   id="svg8"
   sodipodi:docname="padlock_icon (copy).svg"
   inkscape:version="1.1.2 (0a00cf5339, 2022-02-04)"
   xmlns:inkscape="http://www.inkscape.org/namespaces/inkscape"
   xmlns:sodipodi="http://sodipodi.sourceforge.net/DTD/sodipodi-0.dtd"
   xmlns="http://www.w3.org/2000/svg"
   xmlns:svg="http://www.w3.org/2000/svg">
  <defs
     id="defs12" />
  <sodipodi:namedview
     id="namedview10"
     pagecolor="#ffffff"
     bordercolor="#666666"
     borderopacity="1.0"
     inkscape:pageshadow="2"
     inkscape:pageopacity="0.0"
     inkscape:pagecheckerboard="0"
     showgrid="false"
     inkscape:zoom="17.733333"
     inkscape:cx="11.024436"
     inkscape:cy="15.028195"
     inkscape:window-width="1366"
     inkscape:window-height="704"
     inkscape:window-x="0"
     inkscape:window-y="27"
     inkscape:window-maximized="1"
     inkscape:current-layer="svg8" />
  <g
     fill="#000"
     id="g6">
    <path
       d="M 20.7037,10.3959 H 18.7773 V 8.49734 c 0,-4.37307 -3.5576,-7.930934 -7.9309,-7.930934 -3.70746,0 -6.96826,2.633224 -7.75279,6.261064 -0.7869495,4.156479 0.22625,4.914278 0.76677,5.031128 0.53853,0.1174 2.0789673,-0.304696 1.5395078,-4.5817554 C 5.9867678,4.5635126 8.07464,2.56766 10.8466,2.56766 c 3.2696,0 5.9296,2.65979 5.9296,5.9296 V 10.3958 L 1.29651,10.3957 c -0.552612,0 -1.000612,0.448 -1.000612,1.0006 v 17.0344 c 0,0.5526 0.448027,1.0006 1.000612,1.0006 H 20.7037 c 0.5526,0 1.0006,-0.448 1.0006,-1.0006 l -10e-5,-17.0344 c 3e-4,-0.5523 -0.4479,-1.0006 -1.0003,-1.0006 z M 19.7031,27.4305 H 2.29694 V 12.3972 H 17.5844 c 0.0624,0.0122 0.1264,0.0195 0.1923,0.0195 0.0659,0 0.1299,-0.0074 0.1923,-0.0195 h 1.734 z"
       id="path2"
       sodipodi:nodetypes="ccsscccssccssssccccccccsccc" />
    <path
       d="m11.0586 14.168c-1.93947 0-3.51734 1.5779-3.51734 3.5173 0 1.5597 1.02115 2.8837 2.42947 3.3435v3.1485c0 .5526.44807 1.0006 1.00057 1.0006.5526 0 1.0007-.448 1.0007-1.0006v-3.0987c1.4976-.4035 2.6044-1.7695 2.6044-3.3928 0-1.9398-1.5779-3.5176-3.5178-3.5176zm0 5.0336c-.8361 0-1.51614-.6804-1.51614-1.5162 0-.8361.68034-1.5161 1.51614-1.5161.8361 0 1.5161.6803 1.5161 1.5161.0003.8362-.68 1.5162-1.5161 1.5162z"
       id="path4" />
  </g>
</svg>
