<svg fill="none" height="287" viewBox="0 0 287 287" width="287" xmlns="http://www.w3.org/2000/svg"><g fill="#7200a6"><path d="m267.914 76.2664h-71.893c-2.606 0-4.721 2.1123-4.721 4.7207v14.4014c-6.007-8.8884-14.419-14.4332-23.76-14.4332 0 0-9.713-1.7022-14.161 4.7206-10.704 15.4531-41.17 34.6361-47.199 37.7621l.094.19c-.508-.115-1.033-.19-1.576-.19-.72 0-1.4.141-2.058.338l1.526-4.313c.15-.442 1.39-4.437-.513-8.045-1.12-2.124-3.123-3.651-5.7974-4.414-7.3993-2.096-11.2987 3.162-12.2264 5.995l-4.3713 9.391c-.5512-8.627-7.6485-15.475-16.4137-15.475v33.038c3.6594 0 7.0087-1.228 9.747-3.242l-25.7726 55.364c-5.5308-.586-11.1474.238-16.3791 2.517-7.9588 3.47-14.0858 9.836-17.2602 17.917l-.839 2.136 5.7886 2.462c-2.7289 3.866-4.4021 8.326-4.7329 13.119-.4737 6.92 1.7732 13.612 6.3286 18.839 4.5573 5.227 10.8773 8.366 17.7935 8.84.6082.04 1.2136.061 1.8199.061 6.265 0 12.2461-2.23 17.0163-6.389 4.4226-3.851 7.2357-9 8.3203-14.674l5.1113 2.173h91.2661c3.972 11.194 14.554 18.882 26.605 18.882 12.103 0 22.636-7.668 26.607-18.882h14.184c3.165 0 6.219-1.34 8.372-3.679 2.123-2.31 3.199-5.413 2.942-8.513-1.539-18.531-7.36-35.451-13.874-47.151 1.358-.83 2.313-2.259 2.313-3.967l-.001-14.816c0-2.606-2.112-4.721-4.72-4.721h42.442c2.606 0 4.721-2.112 4.721-4.721v-70.5227c-.009-2.6064-2.118-4.7216-4.728-4.7216zm-120.908 104.1926-7.577 30.308-2.58-27.442c.129-7.675 1.111-11.156 5.606-12.658v5.106c0 .637.126 1.243.356 1.794.688 1.653 2.301 2.821 4.195 2.89zm-36.104-19.26c0 22.01 3.9 42.732 5.645 50.897-.003 0-.003 0-.006-.003v.003c-18.7751-5.14-35.2742-15.547-35.645-26.909l17.9431-50.686c0 .003.0028.003.0028.005l.0028-.005c1.2743 1.871 3.4183 3.1 5.8523 3.1 3.22-.003 5.906-2.164 6.762-5.112 4.388-3.014 34.727-23.444 44.887-19.594.68.256 1.271.621 1.756 1.109 3.266 3.266 4.721 10.262 4.721 14.16-.004 16.041-51.306 14.976-51.921 33.036zm130.259-47.326-17.22 16.703 9.5-13.862-5.253-1.935 12.972-14.8807s-6.925 11.9327-6.727 12.5247c.197.585 6.728 1.45 6.728 1.45z"/><path d="m142.825 177.561c.689 1.652 2.302 2.821 4.196 2.893v-.003c-1.896-.066-3.51-1.234-4.196-2.89z"/><path d="m156.357 112.892c.678.255 1.264.62 1.748 1.105 3.267 3.266 4.721 10.262 4.721 14.16.003 16.047-51.301 14.982-51.918 33.043 0 22.01 3.903 42.725 5.645 50.895.003 0 .003 0 .006.003-1.745-8.165-5.646-28.887-5.646-50.897.617-18.061 51.921-16.996 51.921-33.039 0-3.897-1.455-10.894-4.721-14.16-.489-.488-1.08-.852-1.757-1.108z"/><path d="m104.705 137.598h.005c-2.433 0-4.578-1.229-5.8519-3.1l-.0028.006c1.2747 1.865 3.4187 3.094 5.8497 3.094z"/><path d="m118.029 52.6387 19.958-.0028c-.15 1.8142-.207 4.3535.089 7.0891h-7.629c.017-.2037.055-.4195.055-.611 0-3.4184-11.662-3.4184-11.662 0s2.612 8.6184 5.829 8.6184c2.623 0 4.813-3.4464 5.547-6.5723h8.034c.531 3.3866 1.69 6.9451 4.047 9.7721 2.937 3.5212 7.143 5.3066 12.516 5.3066 12.878 0 16.437-12.3293 16.52-18.882 0-15.6187-12.706-28.3197-28.32-28.3197-12.617 0-23.824 8.4727-27.253 20.6011-.204.7119-.057 1.478.388 2.0666.447.5904 1.141.9351 1.882.9351z"/></g></svg>