<svg width="9" height="13" viewBox="0 0 9 13" fill="none" xmlns="http://www.w3.org/2000/svg">
<path d="M0.527687 12.7437C0.622531 12.8243 0.735201 12.8883 0.859243 12.9319C0.983287 12.9756 1.11627 12.998 1.25056 12.998C1.38486 12.998 1.51784 12.9756 1.64189 12.9319C1.76593 12.8883 1.8786 12.8243 1.97344 12.7437L8.76113 6.98725C8.83685 6.92317 8.89692 6.84705 8.93791 6.76325C8.9789 6.67945 9 6.58962 9 6.4989C9 6.40817 8.9789 6.31834 8.93791 6.23454C8.89692 6.15074 8.83685 6.07462 8.76113 6.01054L1.97344 0.254129C1.57321 -0.0852981 0.927926 -0.0852982 0.527688 0.254129C0.127452 0.593556 0.127452 1.1408 0.527688 1.48022L6.44139 6.50236L0.519521 11.5245C0.127452 11.857 0.127451 12.4112 0.527687 12.7437Z" fill="#1E232C"/>
</svg>
