<svg fill="none" height="13" viewBox="0 0 9 13" width="9" xmlns="http://www.w3.org/2000/svg"><path d="m.527687 12.7437c.094844.0806.207514.1446.331556.1882.124044.0437.257027.0661.391317.0661.1343 0 .26728-.0224.39133-.0661.12404-.0436.23671-.1076.33155-.1882l6.78769-5.75645c.07572-.06408.13579-.1402.17678-.224s.06209-.17363.06209-.26435c0-.09073-.0211-.18056-.06209-.26436s-.10106-.15992-.17678-.224l-6.78769-5.756411c-.40023-.3394271-1.045514-.3394272-1.445752 0-.400236.339427-.400236.886671 0 1.226091l5.913702 5.02214-5.921869 5.02214c-.392069.3325-.39207.8867.008166 1.2192z" fill="#1e232c"/></svg>