<svg fill="none" height="18" viewBox="0 0 22 18" width="22" xmlns="http://www.w3.org/2000/svg"><path d="m19.25.75h-16.5c-1.24046 0-2.25 1.00954-2.25 2.25v12c0 1.2405 1.00954 2.25 2.25 2.25h16.5c1.2405 0 2.25-1.0095 2.25-2.25v-12c0-1.24046-1.0095-2.25-2.25-2.25zm-.4995 1.5-7.2998 5.475c-.2655.19875-.6361.19875-.9008 0l-7.30042-5.475zm.4995 13.5h-16.5c-.41398 0-.75-.3367-.75-.75v-11.8124l7.65 5.7376c.3967.29774.8738.44704 1.35.44704s.9533-.14922 1.35-.44704l7.65-5.7376v11.8124c0 .4133-.336.75-.75.75z" fill="#7200a6"/></svg>