<svg fill="none" height="26" viewBox="0 0 26 26" width="26" xmlns="http://www.w3.org/2000/svg"><path d="m23.9653 16.9599c-.5192-.5194-1.1476-.9168-1.8394-1.1632-.6918-.2465-1.4298-.3359-2.1606-.2618l-7.5-7.49999c.3728-1.46187.1811-3.0104-.5368-4.33733-.7179-1.32688-1.9092-2.3347-3.33684-2.822404-1.4276-.48792-2.98666-.420107-4.3664.189894-.15292.06511-.26343.20188-.29498.36501-.03136.16396.02114.3328.14.45l3 3.00001-.5 1.70501-1.70502.5-3-3c-.11718-.11885-.28605-.17136-.45-.14-.16312.03156-.29989.14208-.36501.29499-.585628 1.37376-.638028 2.91653-.146772 4.32666.491252 1.41022 1.490722 2.58655 2.803202 3.29925 1.3124.7126 2.8432.9101 4.2936.554l7.50002 7.5251c-.1015 1.0164.1137 2.0394.6161 2.9288.5023.8894 1.2673 1.6018 2.1902 2.0398.923.4379 1.9586.5799 2.9654.4065 1.0066-.1734 1.9351-.6537 2.6583-1.3752.6151-.6139 1.0576-1.3792 1.2828-2.2186s.2252-1.7234 0-2.5627c-.2252-.8395-.6677-1.6047-1.2828-2.2187zm-.705 6.3c-.7912.7955-1.8835 1.2169-3.004 1.1591s-2.1636-.5895-2.8688-1.4622-1.0059-2.0042-.8272-3.112c.0263-.1591-.0259-.3211-.14-.435l-7.91997-7.9099c-.09313-.0924-.21885-.1444-.35-.145-.04813-.0071-.09688-.0071-.145 0-.86573.2592-1.78552.2789-2.66147.057-.87605-.2219-1.67552-.677-2.31354-1.317-.6175-.61341-1.06302-1.37832-1.29208-2.21811-.22896-.83968-.23344-1.7249-.01292-2.56688l2.65499 2.69013c.06364.06511.14375.11167.23187.13459.08813.02292.18083.02135.26813-.00458l2.25-.64502c.16521-.04875.29366-.17917.34-.34501l.65-2.25c.02594-.08729.0275-.18.00459-.26813-.02292-.08813-.06948-.16823-.13459-.23188l-2.65-2.65c.84198-.22052 1.7272-.21604 2.56688.01292.83979.22906 1.6047.67458 2.21811 1.29208.6445.64032 1.1023 1.44416 1.3243 2.32501.222.88093.1998 1.80573-.0643 2.67493-.0397.16136.0035.33187.115.45499l7.9 7.90506c.114.1141.276.1663.435.14 1.1077-.1787 2.2392.122 3.112.8272.8727.7051 1.4044 1.7482 1.4622 2.8688.0578 1.1205-.3636 2.2128-1.1591 3.004zm-2.7949-4.9149c-.6591.0006-1.2803.3076-1.6812.8308-.4007.5232-.5354 1.203-.3642 1.8395.171.6364.6284 1.1572 1.2375 1.4089.609.2517 1.3005.2059 1.871-.124s.9552-.9065 1.0408-1.5599c.0856-.6535-.1376-1.3096-.6039-1.7753-.3967-.3994-.9371-.6227-1.5-.62zm.79 2.9098c-.2135.2019-.4961.3143-.79.3143s-.5765-.1124-.79-.3143c-.2085-.2093-.3254-.4929-.325-.7883s.118-.5786.3271-.7875c.209-.2087.4925-.326.7879-.326s.5788.1173.7879.326c.2091.2089.3267.4921.3271.7875s-.1164.579-.325.7883z" fill="#000"/></svg>