<svg fill="none" height="286" viewBox="0 0 287 286" width="287" xmlns="http://www.w3.org/2000/svg"><path clip-rule="evenodd" d="m205.276 111.621-58.046 33.515v67.055l58.046-33.514zm-61.776-96.453c9.613 0 17.406 7.7932 17.406 17.4057s-7.793 17.4057-17.406 17.4057c-9.612 0-17.406-7.7932-17.406-17.4057s7.794-17.4057 17.406-17.4057zm-95.6336 55.2147c9.6125 0 17.4057 7.7932 17.4057 17.4057 0 9.6124-7.7932 17.4056-17.4057 17.4056-9.6124 0-17.4057-7.7932-17.4057-17.4056 0-9.6125 7.7933-17.4057 17.4057-17.4057zm0 110.4273c9.6125 0 17.4057 7.793 17.4057 17.405 0 9.613-7.7932 17.406-17.4057 17.406-9.6124 0-17.4057-7.793-17.4057-17.406 0-9.612 7.7933-17.405 17.4057-17.405zm95.6336 55.212c9.613 0 17.406 7.793 17.406 17.406 0 9.612-7.793 17.405-17.406 17.405-9.612 0-17.406-7.793-17.406-17.405 0-9.613 7.794-17.406 17.406-17.406zm95.634-55.212c9.612 0 17.405 7.793 17.405 17.405 0 9.613-7.793 17.406-17.405 17.406-9.613 0-17.406-7.793-17.406-17.406 0-9.612 7.793-17.405 17.406-17.405zm0-110.4273c9.612 0 17.405 7.7932 17.405 17.4057 0 9.6124-7.793 17.4056-17.405 17.4056-9.613 0-17.406-7.7932-17.406-17.4056 0-9.6125 7.793-17.4057 17.406-17.4057zm-72.485-28.7287 53.051 30.6282c-1.542 1.928-2.803 4.0898-3.718 6.4266l-53.051-30.6306c1.542-1.928 2.803-4.0898 3.718-6.4266zm76.212 70.716v61.261c-1.216-.183-2.462-.277-3.729-.277s-2.511.094-3.73.277v-61.261c1.216.183 2.463.277 3.73.277s2.511-.094 3.729-.277zm-23.16 101.349-53.051 30.628c-.918-2.337-2.176-4.496-3.718-6.427l53.05-30.63c.918 2.334 2.177 4.498 3.719 6.426zm-99.352 30.628-53.0503-30.628c1.5417-1.928 2.8033-4.09 3.7185-6.427l53.0508 30.631c-1.542 1.928-2.803 4.089-3.719 6.426zm-76.2115-70.716v-61.261c1.2158.183 2.4624.277 3.7294.277s2.5108-.094 3.7294-.277v61.261c-1.2159-.183-2.4624-.277-3.7294-.277s-2.5109.094-3.7294.277zm23.1602-101.3488 53.0503-30.6282c.918 2.3367 2.177 4.4956 3.719 6.4266l-53.0508 30.6306c-.918-2.334-2.1766-4.4985-3.7185-6.4266zm99.6113 12.8933 11.243 6.4918-58.072 33.5287-11.243-6.492zm-61.776 39.9635v19.788l11.226 6.481v-19.788zm80.459-29.1741 15.979 9.2261-58.073 33.529-15.978-9.226zm-61.776 39.9641v21.93h-.008c0 .635-.16 1.276-.501 1.865-1.03 1.779-3.306 2.385-5.082 1.355l-18.4469-10.65c-1.2438-.604-2.1022-1.879-2.1022-3.355v-26.233l-15.9535-9.209v67.055l58.0456 33.514v-67.055l-15.953-9.212zm-22.419-21.516-15.9702-9.221 58.0722-33.5288 15.97 9.2207z" fill="#7200a6" fill-rule="evenodd"/></svg>