<svg fill="none" height="21" viewBox="0 0 22 21" width="22" xmlns="http://www.w3.org/2000/svg"><path d="m20.0002 8.25h-.0383c-.3833-4.6118-4.2524-8.25-8.9618-8.25-4.70942 0-8.57862 3.6382-8.96182 8.25h-.03828c-.82726 0-1.5.67274-1.5 1.5v3c0 .8273.67274 1.5 1.5 1.5h1.5c.82726 0 1.5-.6727 1.5-1.5v-3c0-.81454-.6525-1.47524-1.4625-1.49624.37578-3.7868 3.5782-6.7538 7.4624-6.7538s7.0868 2.967 7.4624 6.7538c-.8092.02023-1.4625.68172-1.4625 1.49624v3c0 .8273.6727 1.5 1.5 1.5 0 2.0678-1.6823 3.75-3.75 3.75h-.75c-.0458 0-.0863.018-.1298.0262-.3029-.8842-1.1339-1.5262-2.1202-1.5262h-1.5c-1.24043 0-2.24997 1.0096-2.24997 2.25 0 1.2405 1.00954 2.25 2.24997 2.25h1.5c.9863 0 1.8165-.642 2.1202-1.5262.0435.0082.084.0262.1298.0262h.75c2.895 0 5.25-2.355 5.25-5.25.8273 0 1.5-.6727 1.5-1.5v-2.99998c0-.82726-.6727-1.5-1.5-1.5z" fill="#7200a6"/></svg>