<svg fill="none" height="12" viewBox="0 0 12 12" width="12" xmlns="http://www.w3.org/2000/svg"><path d="m.97034.97034c.06967-.069845.15243-.125259.24355-.163069.09112-.037809.1888-.057271.28745-.057271s.19633.019462.28745.057271c.09112.03781.17388.093224.24355.163069l3.969 3.9705 3.969-3.9705c.06976-.069732.15256-.125046.24366-.162785.0911-.037738.1887-.057162.2873-.057162.0987 0 .1963.019424.2874.057162.0911.037739.1739.093053.2436.162785.0698.06973.1251.15252.1628.24362.0378.09111.0572.18876.0572.28738s-.0194.19627-.0572.28738c-.0377.09111-.093.17389-.1628.24362l-3.97046 3.969 3.97046 3.969c.0698.06976.1251.15256.1628.24366.0378.0911.0572.1887.0572.2873 0 .0987-.0194.1963-.0572.2874-.0377.0911-.093.1739-.1628.2436-.0697.0698-.1525.1251-.2436.1628-.0911.0378-.1887.0572-.2874.0572-.0986 0-.1962-.0194-.2873-.0572-.0911-.0377-.1739-.093-.24366-.1628l-3.969-3.97046-3.969 3.97046c-.06973.0698-.15251.1251-.24362.1628-.09111.0378-.18876.0572-.28738.0572s-.19627-.0194-.28738-.0572c-.0911-.0377-.17389-.093-.24362-.1628-.069732-.0697-.125046-.1525-.162785-.2436-.037738-.0911-.057162-.1887-.057162-.2874 0-.0986.019424-.1962.057162-.2873.037739-.0911.093053-.1739.162785-.24366l3.9705-3.969-3.9705-3.969c-.069845-.06967-.125259-.15243-.163069-.24355-.037809-.09112-.057271-.1888-.057271-.28745s.019462-.19633.057271-.28745c.03781-.09112.093224-.17388.163069-.24355z" fill="#101820"/></svg>