<svg viewBox="0 0 640 480" xmlns="http://www.w3.org/2000/svg"><g fill-rule="evenodd"><g stroke-width="1pt"><path d="m0 0h912v37h-912zm0 73.9h912v37h-912zm0 73.8h912v37h-912zm0 73.8h912v37h-912zm0 74h912v36.8h-912zm0 73.7h912v37h-912zm0 73.8h912v37h-912z" fill="#bd3d44"/><path d="m0 37h912v36.9h-912zm0 73.8h912v36.9h-912zm0 73.8h912v37h-912zm0 73.9h912v37h-912zm0 73.8h912v37h-912zm0 73.8h912v37h-912z" fill="#fff"/></g><path d="m0 0h364.8v258.5h-364.8z" fill="#192f5d"/><path d="m30.4 11 3.4 10.3h10.6l-8.6 6.3 3.3 10.3-8.7-6.4-8.6 6.3 3.2-10.2-8.7-6.3h10.9zm60.8 0 3.3 10.3h10.8l-8.7 6.3 3.2 10.3-8.6-6.4-8.7 6.3 3.3-10.2-8.6-6.3h10.6zm60.8 0 3.3 10.3h10.7l-8.6 6.3 3.3 10.3-8.7-6.4-8.7 6.3 3.3-10.2-8.7-6.3h10.8zm60.8 0 3.3 10.3h10.8l-8.7 6.3 3.3 10.3-8.7-6.4-8.7 6.3 3.4-10.2-8.8-6.3h10.7zm60.8 0 3.3 10.3h10.7l-8.6 6.3 3.3 10.3-8.7-6.4-8.7 6.3 3.3-10.2-8.6-6.3h10.7zm60.8 0 3.3 10.3h10.8l-8.8 6.3 3.4 10.3-8.7-6.4-8.7 6.3 3.4-10.2-8.8-6.3h10.8zm-273.6 26 3.3 10.2h10.9l-8.7 6.2 3.2 10.3-8.5-6.3-8.7 6.3 3.1-10.3-8.4-6.2h10.7zm60.8 0 3.4 10.2h10.7l-8.8 6.2 3.4 10.3-8.7-6.3-8.7 6.3 3.3-10.3-8.7-6.2h10.8zm60.8 0 3.3 10.2h10.8l-8.7 6.2 3.3 10.3-8.7-6.3-8.7 6.3 3.3-10.3-8.6-6.2h10.6zm60.8 0 3.4 10.2h10.7l-8.8 6.2 3.4 10.3-8.7-6.3-8.6 6.3 3.2-10.3-8.7-6.2h10.9zm60.8 0 3.3 10.2h10.8l-8.7 6.2 3.3 10.3-8.7-6.3-8.7 6.3 3.3-10.3-8.6-6.2h10.7zm-273.6 25.6 3.4 10.4h10.6l-8.6 6.3 3.3 10.2-8.7-6.3-8.6 6.3 3.2-10.2-8.7-6.3h10.9zm60.8 0 3.3 10.4h10.8l-8.7 6.3 3.2 10.2-8.6-6.3-8.7 6.3 3.3-10.3-8.6-6.3h10.6zm60.8 0 3.3 10.3h10.7l-8.6 6.3 3.3 10.2-8.7-6.3-8.7 6.3 3.3-10.3-8.7-6.3h10.8zm60.8 0 3.3 10.3h10.8l-8.7 6.3 3.3 10.2-8.7-6.3-8.7 6.3 3.4-10.3-8.8-6.3h10.7zm60.8 0 3.3 10.3h10.7l-8.6 6.3 3.3 10.2-8.7-6.3-8.7 6.3 3.3-10.3-8.6-6.3h10.7zm60.8 0 3.3 10.3h10.8l-8.8 6.3 3.4 10.2-8.7-6.3-8.7 6.3 3.4-10.3-8.8-6.3h10.8zm-273.6 26 3.3 10.2h10.9l-8.7 6.3 3.3 10.3-8.7-6.4-8.7 6.3 3.3-10.2-8.6-6.3h10.7zm60.8 0 3.4 10.2h10.7l-8.8 6.3 3.4 10.3-8.7-6.4-8.7 6.3 3.3-10.2-8.7-6.3h10.8zm60.8 0 3.3 10.2h10.8l-8.7 6.3 3.3 10.3-8.7-6.4-8.7 6.3 3.3-10.2-8.6-6.3h10.6zm60.8 0 3.4 10.2h10.7l-8.7 6.3 3.3 10.3-8.7-6.4-8.6 6.3 3.2-10.2-8.7-6.3h10.9zm60.8 0 3.3 10.2h10.8l-8.7 6.3 3.3 10.3-8.7-6.4-8.7 6.3 3.3-10.2-8.6-6.3h10.7zm-273.6 25.9 3.4 10.2h10.6l-8.6 6.3 3.3 10.3-8.7-6.4-8.6 6.3 3.2-10.2-8.7-6.3h10.9zm60.8 0 3.3 10.2h10.8l-8.7 6.3 3.2 10.2-8.6-6.3-8.7 6.3 3.3-10.2-8.6-6.3h10.6zm60.8 0 3.3 10.2h10.7l-8.6 6.3 3.3 10.3-8.7-6.4-8.7 6.3 3.3-10.2-8.7-6.3h10.8zm60.8 0 3.3 10.2h10.8l-8.7 6.3 3.3 10.3-8.7-6.4-8.7 6.3 3.4-10.2-8.8-6.3h10.7zm60.8 0 3.3 10.2h10.7l-8.6 6.3 3.3 10.3-8.7-6.4-8.7 6.3 3.3-10.2-8.6-6.3h10.7zm60.8 0 3.3 10.2h10.8l-8.8 6.3 3.4 10.3-8.7-6.4-8.7 6.3 3.3-10.2-8.8-6.3h10.8zm-273.6 25.8 3.3 10.3h10.9l-8.7 6.2 3.3 10.3-8.7-6.4-8.7 6.4 3.3-10.3-8.6-6.3h10.7zm60.8 0 3.4 10.3h10.7l-8.8 6.2 3.4 10.3-8.7-6.4-8.7 6.4 3.3-10.3-8.7-6.3h10.8zm60.8 0 3.3 10.3h10.8l-8.7 6.2 3.3 10.3-8.7-6.4-8.7 6.4 3.3-10.3-8.6-6.3h10.6zm60.8 0 3.4 10.3h10.7l-8.7 6.2 3.3 10.3-8.7-6.4-8.6 6.4 3.2-10.3-8.7-6.3h10.9zm60.8 0 3.3 10.3h10.8l-8.7 6.2 3.3 10.3-8.7-6.4-8.7 6.4 3.3-10.3-8.6-6.3h10.7zm-273.6 25.8 3.4 10.3h10.6l-8.6 6.3 3.3 10.1-8.7-6.2-8.6 6.2 3.2-10.2-8.7-6.3h10.9zm60.8 0 3.3 10.3h10.8l-8.7 6.3 3.3 10.1-8.7-6.2-8.7 6.2 3.4-10.2-8.7-6.3h10.6zm60.8 0 3.3 10.3h10.7l-8.6 6.3 3.3 10.1-8.7-6.2-8.7 6.2 3.3-10.2-8.7-6.3h10.8zm60.8 0 3.3 10.3h10.8l-8.7 6.3 3.3 10.1-8.7-6.2-8.7 6.2 3.4-10.2-8.8-6.3h10.7zm60.8 0 3.3 10.3h10.7l-8.6 6.3 3.3 10.1-8.7-6.2-8.7 6.2 3.3-10.2-8.6-6.3h10.7zm60.8 0 3.3 10.3h10.8l-8.8 6.3 3.4 10.1-8.7-6.2-8.7 6.2 3.4-10.2-8.8-6.3h10.8zm-273.6 25.9 3.3 10.2h10.9l-8.7 6.3 3.3 10.3-8.7-6.4-8.7 6.3 3.3-10.2-8.6-6.3h10.7zm60.8 0 3.4 10.2h10.7l-8.8 6.3 3.4 10.3-8.7-6.4-8.7 6.3 3.3-10.2-8.7-6.3h10.8zm60.8 0 3.3 10.2h10.8l-8.7 6.3 3.3 10.3-8.7-6.4-8.7 6.3 3.3-10.2-8.6-6.3h10.6zm60.8 0 3.4 10.2h10.7l-8.7 6.3 3.3 10.3-8.7-6.4-8.6 6.3 3.2-10.2-8.7-6.3h10.9zm60.8 0 3.3 10.2h10.8l-8.7 6.3 3.3 10.3-8.7-6.4-8.7 6.3 3.3-10.2-8.6-6.3h10.7zm-273.6 25.9 3.4 10.2h10.6l-8.6 6.3 3.3 10.2-8.7-6.3-8.6 6.3 3.2-10.3-8.7-6.3h10.9zm60.8 0 3.3 10.2h10.8l-8.7 6.3 3.3 10.2-8.7-6.3-8.7 6.3 3.4-10.3-8.7-6.3h10.6zm60.8 0 3.3 10.2h10.7l-8.4 6.3 3.3 10.2-8.7-6.3-8.7 6.3 3.3-10.3-8.7-6.3h10.8zm60.8 0 3.3 10.2h10.8l-8.7 6.3 3.3 10.2-8.7-6.3-8.7 6.3 3.4-10.3-8.8-6.3h10.7zm60.8 0 3.3 10.2h10.7l-8.6 6.3 3.3 10.2-8.7-6.3-8.7 6.3 3.3-10.3-8.6-6.3h10.7zm60.8 0 3.3 10.2h10.8l-8.8 6.3 3.4 10.2-8.7-6.3-8.7 6.3 3.4-10.3-8.8-6.3h10.8z" fill="#fff"/></g></svg>